<svg id="bbe9312d-12f8-4f2d-bb8b-2832bdbd9c03" data-name="Layer 1" xmlns="http://www.w3.org/2000/svg" viewBox="0 0 1500 848.36"><rect x="-0.94" y="-151.64" width="1492.66" height="1000" style="fill:#fff"/><rect x="860.12" y="196.03" width="38.94" height="43.48" style="fill:#fff"/><polygon points="899.06 252.96 899.06 239.51 860.12 239.51 860.12 283 899.06 283 899.06 252.96" style="fill:#f6f6f6"/><rect x="860.12" y="283" width="38.94" height="43.49" style="fill:#fff"/><rect x="860.12" y="326.48" width="38.94" height="43.49" style="fill:#fff"/><rect x="860.12" y="369.97" width="38.94" height="43.49" style="fill:#fff"/><rect x="860.12" y="413.47" width="38.94" height="43.49" style="fill:#ececec"/><rect x="816.61" y="413.46" width="43.51" height="43.49" style="fill:#fff"/><rect x="816.61" y="369.97" width="43.51" height="43.49" style="fill:#f5f5f5"/><rect x="816.61" y="326.48" width="43.51" height="43.49" style="fill:#fff"/><rect x="816.61" y="283" width="43.51" height="43.48" style="fill:#f6f6f6"/><rect x="816.61" y="239.51" width="43.51" height="43.49" style="fill:#fff"/><rect x="816.61" y="196.03" width="43.51" height="43.48" style="fill:#fff"/><rect x="773.1" y="196.03" width="43.51" height="43.48" style="fill:#fff"/><rect x="773.1" y="239.51" width="43.51" height="43.49" style="fill:#fbfbfb"/><rect x="773.1" y="283" width="43.51" height="43.49" style="fill:#fff"/><rect x="773.1" y="326.48" width="43.51" height="43.49" style="fill:#fcfcfc"/><rect x="773.1" y="369.97" width="43.51" height="43.49" style="fill:#fff"/><rect x="773.1" y="413.47" width="43.51" height="43.49" style="fill:#fbfbfb"/><rect x="729.59" y="413.46" width="43.51" height="43.49" style="fill:#f2f2f2"/><rect x="729.59" y="369.97" width="43.51" height="43.49" style="fill:#f5f5f5"/><rect x="729.59" y="326.48" width="43.51" height="43.49" style="fill:#fff"/><rect x="729.59" y="283" width="43.51" height="43.48" style="fill:#f4f4f4"/><rect x="729.59" y="239.51" width="43.51" height="43.49" style="fill:#fff"/><rect x="729.59" y="196.03" width="43.51" height="43.48" style="fill:#fcfcfc"/><rect x="686.08" y="196.02" width="43.51" height="43.49" style="fill:#fff"/><rect x="686.08" y="239.51" width="43.51" height="43.49" style="fill:#eee"/><rect x="686.08" y="283" width="43.51" height="43.49" style="fill:#fff"/><rect x="686.08" y="326.48" width="43.51" height="43.49" style="fill:#fbfbfb"/><rect x="686.08" y="369.97" width="43.51" height="43.49" style="fill:#fff"/><rect x="686.08" y="413.46" width="43.51" height="43.49" style="fill:#e4e4e4"/><rect x="642.57" y="413.46" width="43.51" height="43.49" style="fill:#fff"/><rect x="642.57" y="369.97" width="43.51" height="43.49" style="fill:#fff"/><rect x="642.57" y="326.48" width="43.51" height="43.49" style="fill:#fff"/><rect x="642.57" y="283" width="43.51" height="43.48" style="fill:#eee"/><rect x="642.57" y="239.51" width="43.51" height="43.49" style="fill:#fff"/><rect x="642.57" y="196.02" width="43.51" height="43.49" style="fill:#f5f5f5"/><rect x="599.06" y="196.02" width="43.51" height="43.49" style="fill:#fff"/><rect x="599.06" y="239.51" width="43.51" height="43.49" style="fill:#f5f5f5"/><rect x="599.06" y="283" width="43.51" height="43.49" style="fill:#fff"/><rect x="599.06" y="326.48" width="43.51" height="43.49" style="fill:#f5f5f5"/><rect x="599.06" y="369.97" width="43.51" height="43.49" style="fill:#fff"/><rect x="599.06" y="413.46" width="43.51" height="43.49" style="fill:#f5f5f5"/><rect x="860.12" y="456.96" width="38.94" height="43.49" style="fill:#fff"/><rect x="860.12" y="500.45" width="38.94" height="43.49" style="fill:#e4e4e4"/><rect x="860.12" y="543.93" width="38.94" height="43.49" style="fill:#eee"/><rect x="860.12" y="587.43" width="38.94" height="43.49" style="fill:#dfdfdf"/><rect x="860.12" y="630.91" width="38.94" height="43.49" style="fill:#e4e4e4"/><rect x="860.12" y="674.4" width="38.94" height="43.49" style="fill:#e0e0e0"/><rect x="860.12" y="717.89" width="38.94" height="43.49" style="fill:#dfdfdf"/><rect x="860.12" y="761.38" width="38.94" height="43.49" style="fill:#dfdfdf"/><rect x="860.12" y="804.87" width="38.94" height="43.5" style="fill:#dadada"/><rect x="816.61" y="804.87" width="43.51" height="43.49" style="fill:#dadada"/><rect x="816.61" y="761.38" width="43.51" height="43.49" style="fill:#e1e1e1"/><rect x="816.61" y="717.89" width="43.51" height="43.49" style="fill:#dfdfdf"/><rect x="816.61" y="674.4" width="43.51" height="43.49" style="fill:#e8e8e8"/><rect x="816.61" y="630.91" width="43.51" height="43.49" style="fill:#ededed"/><rect x="816.61" y="587.42" width="43.51" height="43.5" style="fill:#e0e0e0"/><rect x="816.61" y="543.93" width="43.51" height="43.49" style="fill:#f2f2f2"/><rect x="816.61" y="500.45" width="43.51" height="43.49" style="fill:#fff"/><rect x="816.61" y="456.96" width="43.51" height="43.49" style="fill:#f3f3f3"/><rect x="773.1" y="456.96" width="43.51" height="43.49" style="fill:#fff"/><rect x="773.1" y="500.45" width="43.51" height="43.49" style="fill:#efefef"/><rect x="773.1" y="543.93" width="43.51" height="43.49" style="fill:#fefefe"/><rect x="773.1" y="587.43" width="43.51" height="43.49" style="fill:#f3f3f3"/><rect x="773.1" y="630.91" width="43.51" height="43.49" style="fill:#e2e2e2"/><rect x="773.1" y="674.4" width="43.51" height="43.49" style="fill:#e2e2e2"/><rect x="773.1" y="717.89" width="43.51" height="43.49" style="fill:#e6e6e6"/><rect x="773.1" y="761.38" width="43.51" height="43.49" style="fill:#dfdfdf"/><rect x="773.1" y="804.87" width="43.51" height="43.5" style="fill:#dadada"/><rect x="729.59" y="804.87" width="43.51" height="43.49" style="fill:#dadada"/><rect x="729.59" y="761.38" width="43.51" height="43.49" style="fill:#e1e1e1"/><rect x="729.59" y="717.89" width="43.51" height="43.49" style="fill:#e6e6e6"/><rect x="729.59" y="674.4" width="43.51" height="43.49" style="fill:#e6e6e6"/><rect x="729.59" y="630.91" width="43.51" height="43.49" style="fill:#e6e6e6"/><rect x="729.59" y="587.42" width="43.51" height="43.5" style="fill:#fff"/><rect x="729.59" y="543.93" width="43.51" height="43.49" style="fill:#f1f1f1"/><rect x="729.59" y="500.45" width="43.51" height="43.49" style="fill:#fff"/><rect x="729.59" y="456.96" width="43.51" height="43.49" style="fill:#f1f1f1"/><rect x="686.08" y="456.96" width="43.51" height="43.49" style="fill:#f4f4f4"/><rect x="686.08" y="500.45" width="43.51" height="43.49" style="fill:#f4f4f4"/><rect x="686.08" y="543.93" width="43.51" height="43.49" style="fill:#ebebeb"/><rect x="686.08" y="587.43" width="43.51" height="43.49" style="fill:#e8e8e8"/><rect x="686.08" y="630.91" width="43.51" height="43.49" style="fill:#fff"/><rect x="686.08" y="674.4" width="43.51" height="43.49" style="fill:#e5e5e5"/><rect x="686.08" y="717.89" width="43.51" height="43.49" style="fill:#e5e5e5"/><rect x="686.08" y="761.38" width="43.51" height="43.49" style="fill:#dfdfdf"/><rect x="686.08" y="804.87" width="43.51" height="43.5" style="fill:#dadada"/><rect x="642.57" y="804.87" width="43.51" height="43.49" style="fill:#dadada"/><rect x="642.57" y="761.38" width="43.51" height="43.49" style="fill:#dfdfdf"/><rect x="642.57" y="717.89" width="43.51" height="43.49" style="fill:#e9e9e9"/><rect x="642.57" y="674.4" width="43.51" height="43.49" style="fill:#f3f3f3"/><rect x="642.57" y="630.91" width="43.51" height="43.48" style="fill:#eaeaea"/><rect x="642.57" y="587.42" width="43.51" height="43.5" style="fill:#fff"/><rect x="642.57" y="543.93" width="43.51" height="43.49" style="fill:#f4f4f4"/><rect x="642.57" y="500.44" width="43.51" height="43.49" style="fill:#fff"/><rect x="642.57" y="456.96" width="43.51" height="43.48" style="fill:#e4e4e4"/><rect x="599.06" y="456.96" width="43.51" height="43.49" style="fill:#f7f7f7"/><rect x="599.06" y="500.45" width="43.51" height="43.49" style="fill:#e9e9e9"/><rect x="599.06" y="543.93" width="43.51" height="43.49" style="fill:#fff"/><rect x="599.06" y="587.43" width="43.51" height="43.49" style="fill:#e9e9e9"/><rect x="599.06" y="630.91" width="43.51" height="43.49" style="fill:#fff"/><rect x="599.06" y="674.4" width="43.51" height="43.49" style="fill:#ebebeb"/><rect x="599.06" y="717.89" width="43.51" height="43.49" style="fill:#e9e9e9"/><rect x="599.06" y="761.38" width="43.51" height="43.49" style="fill:#e1e1e1"/><rect x="599.06" y="804.87" width="43.51" height="43.5" style="fill:#dadada"/><rect x="560.12" y="196.02" width="38.94" height="43.48" style="fill:#fff"/><polygon points="599.06 252.96 599.06 239.5 560.12 239.5 560.12 282.99 599.06 282.99 599.06 252.96" style="fill:#f6f6f6"/><rect x="560.12" y="282.99" width="38.94" height="43.49" style="fill:#fff"/><rect x="560.12" y="326.48" width="38.94" height="43.49" style="fill:#efefef"/><rect x="560.12" y="369.97" width="38.94" height="43.49" style="fill:#fff"/><rect x="560.12" y="413.46" width="38.94" height="43.49" style="fill:#ececec"/><rect x="516.61" y="413.46" width="43.51" height="43.5" style="fill:#fff"/><rect x="516.61" y="369.97" width="43.51" height="43.49" style="fill:#e5e5e5"/><rect x="516.61" y="326.48" width="43.51" height="43.49" style="fill:#fff"/><rect x="516.61" y="282.99" width="43.51" height="43.48" style="fill:#f6f6f6"/><rect x="516.61" y="239.5" width="43.51" height="43.49" style="fill:#fff"/><rect x="516.61" y="196.02" width="43.51" height="43.48" style="fill:#fff"/><rect x="473.1" y="196.02" width="43.51" height="43.48" style="fill:#fff"/><rect x="473.1" y="239.5" width="43.51" height="43.49" style="fill:#fff"/><rect x="473.1" y="282.99" width="43.51" height="43.49" style="fill:#fff"/><rect x="473.1" y="326.48" width="43.51" height="43.49" style="fill:#fcfcfc"/><rect x="473.1" y="369.97" width="43.51" height="43.49" style="fill:#fff"/><rect x="473.1" y="413.46" width="43.51" height="43.49" style="fill:#fbfbfb"/><rect x="429.59" y="413.46" width="43.51" height="43.5" style="fill:#f2f2f2"/><rect x="429.59" y="369.97" width="43.51" height="43.49" style="fill:#f5f5f5"/><rect x="429.59" y="326.48" width="43.51" height="43.49" style="fill:#fff"/><rect x="429.59" y="282.99" width="43.51" height="43.48" style="fill:#f4f4f4"/><rect x="429.59" y="239.5" width="43.51" height="43.49" style="fill:#fff"/><rect x="429.59" y="196.02" width="43.51" height="43.48" style="fill:#fcfcfc"/><rect x="386.08" y="196.01" width="43.51" height="43.49" style="fill:#fff"/><rect x="386.08" y="239.5" width="43.51" height="43.49" style="fill:#fff"/><rect x="386.08" y="282.99" width="43.51" height="43.49" style="fill:#fff"/><rect x="386.08" y="326.48" width="43.51" height="43.49" style="fill:#fbfbfb"/><rect x="386.08" y="369.96" width="43.51" height="43.49" style="fill:#fff"/><rect x="386.08" y="413.46" width="43.51" height="43.49" style="fill:#e4e4e4"/><rect x="342.57" y="413.46" width="43.51" height="43.49" style="fill:#fff"/><rect x="342.57" y="369.96" width="43.51" height="43.49" style="fill:#fff"/><rect x="342.57" y="326.47" width="43.51" height="43.49" style="fill:#fff"/><rect x="342.57" y="282.99" width="43.51" height="43.48" style="fill:#fff"/><rect x="342.57" y="239.5" width="43.51" height="43.49" style="fill:#fff"/><rect x="342.57" y="196.01" width="43.51" height="43.49" style="fill:#f5f5f5"/><rect x="299.06" y="196.01" width="43.51" height="43.49" style="fill:#fff"/><rect x="299.06" y="239.5" width="43.51" height="43.49" style="fill:#f5f5f5"/><rect x="299.06" y="282.99" width="43.51" height="43.49" style="fill:#fff"/><rect x="299.06" y="326.48" width="43.51" height="43.49" style="fill:#f5f5f5"/><rect x="299.06" y="369.96" width="43.51" height="43.49" style="fill:#fff"/><rect x="299.06" y="413.46" width="43.51" height="43.49" style="fill:#f5f5f5"/><rect x="560.12" y="456.95" width="38.94" height="43.49" style="fill:#fff"/><rect x="560.12" y="500.44" width="38.94" height="43.49" style="fill:#e4e4e4"/><rect x="560.12" y="543.93" width="38.94" height="43.49" style="fill:#eee"/><rect x="560.12" y="587.42" width="38.94" height="43.49" style="fill:#fff"/><rect x="560.12" y="630.91" width="38.94" height="43.49" style="fill:#fff"/><rect x="560.12" y="674.4" width="38.94" height="43.49" style="fill:#e0e0e0"/><rect x="560.12" y="717.88" width="38.94" height="43.49" style="fill:#dfdfdf"/><rect x="560.12" y="761.38" width="38.94" height="43.49" style="fill:#dfdfdf"/><rect x="560.12" y="804.86" width="38.94" height="43.5" style="fill:#dadada"/><rect x="516.61" y="804.86" width="43.51" height="43.49" style="fill:#dadada"/><rect x="516.61" y="761.37" width="43.51" height="43.49" style="fill:#e1e1e1"/><rect x="516.61" y="717.88" width="43.51" height="43.49" style="fill:#dfdfdf"/><rect x="516.61" y="674.4" width="43.51" height="43.49" style="fill:#e8e8e8"/><rect x="516.61" y="630.91" width="43.51" height="43.49" style="fill:#ededed"/><rect x="516.61" y="587.41" width="43.51" height="43.5" style="fill:#fff"/><rect x="516.61" y="543.93" width="43.51" height="43.49" style="fill:#f2f2f2"/><rect x="516.61" y="500.44" width="43.51" height="43.49" style="fill:#fff"/><rect x="516.61" y="456.95" width="43.51" height="43.49" style="fill:#f3f3f3"/><rect x="473.1" y="456.95" width="43.51" height="43.49" style="fill:#fff"/><rect x="473.1" y="500.44" width="43.51" height="43.49" style="fill:#efefef"/><rect x="473.1" y="543.93" width="43.51" height="43.49" style="fill:#fefefe"/><rect x="473.1" y="587.42" width="43.51" height="43.49" style="fill:#f3f3f3"/><rect x="473.1" y="630.91" width="43.51" height="43.49" style="fill:#e2e2e2"/><rect x="473.1" y="674.4" width="43.51" height="43.49" style="fill:#e2e2e2"/><rect x="473.1" y="717.88" width="43.51" height="43.49" style="fill:#e6e6e6"/><rect x="473.1" y="761.38" width="43.51" height="43.49" style="fill:#dfdfdf"/><rect x="473.1" y="804.86" width="43.51" height="43.5" style="fill:#dadada"/><rect x="429.59" y="804.86" width="43.51" height="43.49" style="fill:#dadada"/><rect x="429.59" y="761.37" width="43.51" height="43.49" style="fill:#e1e1e1"/><rect x="429.59" y="717.88" width="43.51" height="43.49" style="fill:#e6e6e6"/><rect x="429.59" y="674.4" width="43.51" height="43.49" style="fill:#e6e6e6"/><rect x="429.59" y="630.91" width="43.51" height="43.49" style="fill:#e6e6e6"/><rect x="429.59" y="587.41" width="43.51" height="43.5" style="fill:#fff"/><rect x="429.59" y="543.93" width="43.51" height="43.49" style="fill:#f1f1f1"/><rect x="429.59" y="500.44" width="43.51" height="43.49" style="fill:#fff"/><rect x="429.59" y="456.95" width="43.51" height="43.49" style="fill:#f1f1f1"/><rect x="386.08" y="456.95" width="43.51" height="43.49" style="fill:#f4f4f4"/><rect x="386.08" y="500.44" width="43.51" height="43.49" style="fill:#f4f4f4"/><rect x="386.08" y="543.93" width="43.51" height="43.49" style="fill:#ebebeb"/><rect x="386.08" y="587.42" width="43.51" height="43.49" style="fill:#e8e8e8"/><rect x="386.08" y="630.91" width="43.51" height="43.49" style="fill:#fff"/><rect x="386.08" y="674.4" width="43.51" height="43.49" style="fill:#e5e5e5"/><rect x="386.08" y="717.88" width="43.51" height="43.49" style="fill:#e5e5e5"/><rect x="386.08" y="761.38" width="43.51" height="43.49" style="fill:#dfdfdf"/><rect x="386.08" y="804.86" width="43.51" height="43.5" style="fill:#dadada"/><rect x="342.57" y="804.86" width="43.51" height="43.49" style="fill:#dadada"/><rect x="342.57" y="761.37" width="43.51" height="43.49" style="fill:#dfdfdf"/><rect x="342.57" y="717.88" width="43.51" height="43.49" style="fill:#e9e9e9"/><rect x="342.57" y="674.39" width="43.51" height="43.49" style="fill:#f3f3f3"/><rect x="342.57" y="630.91" width="43.51" height="43.48" style="fill:#eaeaea"/><rect x="342.57" y="587.41" width="43.51" height="43.5" style="fill:#fff"/><rect x="342.57" y="543.93" width="43.51" height="43.49" style="fill:#f4f4f4"/><rect x="342.57" y="500.44" width="43.51" height="43.49" style="fill:#fff"/><rect x="342.57" y="456.95" width="43.51" height="43.48" style="fill:#e4e4e4"/><rect x="299.06" y="456.95" width="43.51" height="43.49" style="fill:#f7f7f7"/><rect x="299.06" y="500.44" width="43.51" height="43.49" style="fill:#e9e9e9"/><rect x="299.06" y="543.93" width="43.51" height="43.49" style="fill:#fff"/><rect x="299.06" y="587.42" width="43.51" height="43.49" style="fill:#e9e9e9"/><rect x="299.06" y="630.91" width="43.51" height="43.49" style="fill:#fff"/><rect x="299.06" y="674.4" width="43.51" height="43.49" style="fill:#ebebeb"/><rect x="299.06" y="717.88" width="43.51" height="43.49" style="fill:#e9e9e9"/><rect x="299.06" y="761.38" width="43.51" height="43.49" style="fill:#e1e1e1"/><rect x="299.06" y="804.86" width="43.51" height="43.5" style="fill:#dadada"/><rect x="260.12" y="196.02" width="38.94" height="43.48" style="fill:#fff"/><polygon points="299.06 252.96 299.06 239.5 260.12 239.5 260.12 282.99 299.06 282.99 299.06 252.96" style="fill:#f6f6f6"/><rect x="260.12" y="282.99" width="38.94" height="43.49" style="fill:#fff"/><rect x="260.12" y="326.48" width="38.94" height="43.49" style="fill:#efefef"/><rect x="260.12" y="369.97" width="38.94" height="43.49" style="fill:#fff"/><rect x="260.12" y="413.46" width="38.94" height="43.49" style="fill:#ececec"/><rect x="216.61" y="413.46" width="43.51" height="43.5" style="fill:#fff"/><rect x="216.61" y="369.97" width="43.51" height="43.49" style="fill:#fff"/><rect x="216.61" y="326.48" width="43.51" height="43.49" style="fill:#fff"/><rect x="216.61" y="282.99" width="43.51" height="43.48" style="fill:#f6f6f6"/><rect x="216.61" y="239.5" width="43.51" height="43.49" style="fill:#fff"/><rect x="216.61" y="196.02" width="43.51" height="43.48" style="fill:#f6f6f6"/><rect x="173.1" y="196.02" width="43.51" height="43.48" style="fill:#fff"/><rect x="173.1" y="239.5" width="43.51" height="43.49" style="fill:#ebebeb"/><rect x="173.1" y="282.99" width="43.51" height="43.49" style="fill:#fff"/><rect x="173.1" y="326.48" width="43.51" height="43.49" style="fill:#fcfcfc"/><rect x="173.1" y="369.97" width="43.51" height="43.49" style="fill:#fff"/><rect x="173.1" y="413.46" width="43.51" height="43.49" style="fill:#fbfbfb"/><rect x="129.59" y="413.46" width="43.51" height="43.5" style="fill:#f2f2f2"/><rect x="129.59" y="369.97" width="43.51" height="43.49" style="fill:#fff"/><rect x="129.59" y="326.48" width="43.51" height="43.49" style="fill:#fff"/><rect x="129.59" y="282.99" width="43.51" height="43.48" style="fill:#fff"/><rect x="129.59" y="239.5" width="43.51" height="43.49" style="fill:#fff"/><rect x="129.59" y="196.02" width="43.51" height="43.48" style="fill:#fcfcfc"/><rect x="86.08" y="196.01" width="43.51" height="43.49" style="fill:#fff"/><rect x="86.08" y="239.5" width="43.51" height="43.49" style="fill:#fff"/><rect x="86.08" y="282.99" width="43.51" height="43.49" style="fill:#fff"/><rect x="86.08" y="326.48" width="43.51" height="43.49" style="fill:#fbfbfb"/><rect x="86.08" y="369.96" width="43.51" height="43.49" style="fill:#fff"/><rect x="86.08" y="413.46" width="43.51" height="43.49" style="fill:#e4e4e4"/><rect x="42.57" y="413.46" width="43.51" height="43.49" style="fill:#fff"/><rect x="42.57" y="369.96" width="43.51" height="43.49" style="fill:#fff"/><rect x="42.57" y="326.47" width="43.51" height="43.49" style="fill:#fff"/><rect x="42.57" y="282.99" width="43.51" height="43.48" style="fill:#eee"/><rect x="42.57" y="239.5" width="43.51" height="43.49" style="fill:#fff"/><rect x="42.57" y="196.01" width="43.51" height="43.49" style="fill:#f5f5f5"/><rect x="-0.94" y="196.01" width="43.51" height="43.49" style="fill:#fff"/><rect x="-0.94" y="239.5" width="43.51" height="43.49" style="fill:#f5f5f5"/><rect x="-0.94" y="282.99" width="43.51" height="43.49" style="fill:#fff"/><rect x="-0.94" y="326.48" width="43.51" height="43.49" style="fill:#f5f5f5"/><rect x="-0.94" y="369.96" width="43.51" height="43.49" style="fill:#fff"/><rect x="-0.94" y="413.46" width="43.51" height="43.49" style="fill:#f5f5f5"/><rect x="260.12" y="456.95" width="38.94" height="43.49" style="fill:#fff"/><rect x="260.12" y="500.44" width="38.94" height="43.49" style="fill:#e4e4e4"/><rect x="260.12" y="543.93" width="38.94" height="43.49" style="fill:#eee"/><rect x="260.12" y="587.42" width="38.94" height="43.49" style="fill:#dfdfdf"/><rect x="260.12" y="630.91" width="38.94" height="43.49" style="fill:#e4e4e4"/><rect x="260.12" y="674.4" width="38.94" height="43.49" style="fill:#e0e0e0"/><rect x="260.12" y="717.88" width="38.94" height="43.49" style="fill:#dfdfdf"/><rect x="260.12" y="761.38" width="38.94" height="43.49" style="fill:#dfdfdf"/><rect x="260.12" y="804.86" width="38.94" height="43.5" style="fill:#dadada"/><rect x="216.61" y="804.86" width="43.51" height="43.49" style="fill:#dadada"/><rect x="216.61" y="761.37" width="43.51" height="43.49" style="fill:#e1e1e1"/><rect x="216.61" y="717.88" width="43.51" height="43.49" style="fill:#dfdfdf"/><rect x="216.61" y="674.4" width="43.51" height="43.49" style="fill:#e8e8e8"/><rect x="216.61" y="630.91" width="43.51" height="43.49" style="fill:#ededed"/><rect x="216.61" y="587.41" width="43.51" height="43.5" style="fill:#fff"/><rect x="216.61" y="543.93" width="43.51" height="43.49" style="fill:#f2f2f2"/><rect x="216.61" y="500.44" width="43.51" height="43.49" style="fill:#fff"/><rect x="216.61" y="456.95" width="43.51" height="43.49" style="fill:#f3f3f3"/><rect x="173.1" y="456.95" width="43.51" height="43.49" style="fill:#fff"/><rect x="173.1" y="500.44" width="43.51" height="43.49" style="fill:#efefef"/><rect x="173.1" y="543.93" width="43.51" height="43.49" style="fill:#fefefe"/><rect x="173.1" y="587.42" width="43.51" height="43.49" style="fill:#f3f3f3"/><rect x="173.1" y="630.91" width="43.51" height="43.49" style="fill:#e2e2e2"/><rect x="173.1" y="674.4" width="43.51" height="43.49" style="fill:#e2e2e2"/><rect x="173.1" y="717.88" width="43.51" height="43.49" style="fill:#e6e6e6"/><rect x="173.1" y="761.38" width="43.51" height="43.49" style="fill:#dfdfdf"/><rect x="173.1" y="804.86" width="43.51" height="43.5" style="fill:#dadada"/><rect x="129.59" y="804.86" width="43.51" height="43.49" style="fill:#dadada"/><rect x="129.59" y="761.37" width="43.51" height="43.49" style="fill:#e1e1e1"/><rect x="129.59" y="717.88" width="43.51" height="43.49" style="fill:#e6e6e6"/><rect x="129.59" y="674.4" width="43.51" height="43.49" style="fill:#e6e6e6"/><rect x="129.59" y="630.91" width="43.51" height="43.49" style="fill:#e6e6e6"/><rect x="129.59" y="587.41" width="43.51" height="43.5" style="fill:#fff"/><rect x="129.59" y="543.93" width="43.51" height="43.49" style="fill:#f1f1f1"/><rect x="129.59" y="500.44" width="43.51" height="43.49" style="fill:#fff"/><rect x="129.59" y="456.95" width="43.51" height="43.49" style="fill:#f1f1f1"/><rect x="86.08" y="456.95" width="43.51" height="43.49" style="fill:#f4f4f4"/><rect x="86.08" y="500.44" width="43.51" height="43.49" style="fill:#f4f4f4"/><rect x="86.08" y="543.93" width="43.51" height="43.49" style="fill:#ebebeb"/><rect x="86.08" y="587.42" width="43.51" height="43.49" style="fill:#e8e8e8"/><rect x="86.08" y="630.91" width="43.51" height="43.49" style="fill:#fff"/><rect x="86.08" y="674.4" width="43.51" height="43.49" style="fill:#e5e5e5"/><rect x="86.08" y="717.88" width="43.51" height="43.49" style="fill:#e5e5e5"/><rect x="86.08" y="761.38" width="43.51" height="43.49" style="fill:#dfdfdf"/><rect x="86.08" y="804.86" width="43.51" height="43.5" style="fill:#dadada"/><rect x="42.57" y="804.86" width="43.51" height="43.49" style="fill:#dadada"/><rect x="42.57" y="761.37" width="43.51" height="43.49" style="fill:#dfdfdf"/><rect x="42.57" y="717.88" width="43.51" height="43.49" style="fill:#e9e9e9"/><rect x="42.57" y="674.39" width="43.51" height="43.49" style="fill:#f3f3f3"/><rect x="42.57" y="630.91" width="43.51" height="43.48" style="fill:#eaeaea"/><rect x="42.57" y="587.41" width="43.51" height="43.5" style="fill:#fff"/><rect x="42.57" y="543.93" width="43.51" height="43.49" style="fill:#f4f4f4"/><rect x="42.57" y="500.44" width="43.51" height="43.49" style="fill:#fff"/><rect x="42.57" y="456.95" width="43.51" height="43.48" style="fill:#e4e4e4"/><rect x="-0.94" y="456.95" width="43.51" height="43.49" style="fill:#f7f7f7"/><rect x="-0.94" y="500.44" width="43.51" height="43.49" style="fill:#e9e9e9"/><rect x="-0.94" y="543.93" width="43.51" height="43.49" style="fill:#fff"/><rect x="-0.94" y="587.42" width="43.51" height="43.49" style="fill:#e9e9e9"/><rect x="-0.94" y="630.91" width="43.51" height="43.49" style="fill:#fff"/><rect x="-0.94" y="674.4" width="43.51" height="43.49" style="fill:#ebebeb"/><rect x="-0.94" y="717.88" width="43.51" height="43.49" style="fill:#e9e9e9"/><rect x="-0.94" y="761.38" width="43.51" height="43.49" style="fill:#e1e1e1"/><rect x="-0.94" y="804.86" width="43.51" height="43.5" style="fill:#dadada"/><rect x="1460.12" y="196.02" width="38.94" height="43.48" style="fill:#fff"/><polygon points="1499.06 252.96 1499.06 239.51 1460.12 239.51 1460.12 283 1499.06 283 1499.06 252.96" style="fill:#fff"/><rect x="1460.12" y="283" width="38.94" height="43.49" style="fill:#fff"/><rect x="1460.12" y="326.48" width="38.94" height="43.49" style="fill:#fff"/><rect x="1460.12" y="369.97" width="38.94" height="43.49" style="fill:#fff"/><rect x="1460.12" y="413.47" width="38.94" height="43.49" style="fill:#ececec"/><rect x="1416.61" y="413.46" width="43.51" height="43.49" style="fill:#fff"/><rect x="1416.61" y="369.97" width="43.51" height="43.49" style="fill:#e5e5e5"/><rect x="1416.61" y="326.48" width="43.51" height="43.49" style="fill:#fff"/><rect x="1416.61" y="283" width="43.51" height="43.48" style="fill:#f6f6f6"/><rect x="1416.61" y="239.5" width="43.51" height="43.5" style="fill:#fff"/><rect x="1416.61" y="196.02" width="43.51" height="43.48" style="fill:#f6f6f6"/><rect x="1373.1" y="196.02" width="43.51" height="43.48" style="fill:#fff"/><rect x="1373.1" y="239.51" width="43.51" height="43.49" style="fill:#fff"/><rect x="1373.1" y="283" width="43.51" height="43.49" style="fill:#fff"/><rect x="1373.1" y="326.48" width="43.51" height="43.49" style="fill:#fcfcfc"/><rect x="1373.1" y="369.97" width="43.51" height="43.49" style="fill:#fff"/><rect x="1373.1" y="413.47" width="43.51" height="43.49" style="fill:#fbfbfb"/><rect x="1329.59" y="413.46" width="43.51" height="43.49" style="fill:#f2f2f2"/><rect x="1329.59" y="369.97" width="43.51" height="43.49" style="fill:#f5f5f5"/><rect x="1329.59" y="326.48" width="43.51" height="43.49" style="fill:#fff"/><rect x="1329.59" y="283" width="43.51" height="43.48" style="fill:#fff"/><rect x="1329.59" y="239.5" width="43.51" height="43.5" style="fill:#fff"/><rect x="1329.59" y="196.02" width="43.51" height="43.48" style="fill:#fcfcfc"/><rect x="1286.08" y="196.02" width="43.51" height="43.48" style="fill:#fff"/><rect x="1286.08" y="239.5" width="43.51" height="43.49" style="fill:#fcfcfc"/><rect x="1286.08" y="283" width="43.51" height="43.49" style="fill:#fff"/><rect x="1286.08" y="326.48" width="43.51" height="43.49" style="fill:#fbfbfb"/><rect x="1286.08" y="369.97" width="43.51" height="43.49" style="fill:#fff"/><rect x="1286.08" y="413.46" width="43.51" height="43.49" style="fill:#e4e4e4"/><rect x="1242.57" y="413.46" width="43.52" height="43.49" style="fill:#fff"/><rect x="1242.57" y="369.97" width="43.52" height="43.49" style="fill:#fff"/><rect x="1242.57" y="326.48" width="43.52" height="43.49" style="fill:#fff"/><rect x="1242.57" y="283" width="43.52" height="43.48" style="fill:#eee"/><rect x="1242.57" y="239.5" width="43.52" height="43.5" style="fill:#fff"/><rect x="1242.57" y="196.02" width="43.52" height="43.48" style="fill:#fff"/><rect x="1199.06" y="196.02" width="43.51" height="43.48" style="fill:#fff"/><rect x="1199.06" y="239.5" width="43.51" height="43.49" style="fill:#fff"/><rect x="1199.06" y="283" width="43.51" height="43.49" style="fill:#fff"/><rect x="1199.06" y="326.48" width="43.51" height="43.49" style="fill:#f5f5f5"/><rect x="1199.06" y="369.97" width="43.51" height="43.49" style="fill:#fff"/><rect x="1199.06" y="413.46" width="43.51" height="43.49" style="fill:#f5f5f5"/><rect x="1460.12" y="456.96" width="38.94" height="43.49" style="fill:#fff"/><rect x="1460.12" y="500.45" width="38.94" height="43.49" style="fill:#e4e4e4"/><rect x="1460.12" y="543.93" width="38.94" height="43.49" style="fill:#eee"/><rect x="1460.12" y="587.43" width="38.94" height="43.49" style="fill:#dfdfdf"/><rect x="1460.12" y="630.91" width="38.94" height="43.49" style="fill:#e4e4e4"/><rect x="1460.12" y="674.4" width="38.94" height="43.49" style="fill:#e0e0e0"/><rect x="1460.12" y="717.89" width="38.94" height="43.49" style="fill:#dfdfdf"/><rect x="1460.12" y="761.38" width="38.94" height="43.49" style="fill:#dfdfdf"/><rect x="1460.12" y="804.87" width="38.94" height="43.5" style="fill:#dadada"/><rect x="1416.61" y="804.87" width="43.51" height="43.49" style="fill:#dadada"/><rect x="1416.61" y="761.38" width="43.51" height="43.49" style="fill:#e1e1e1"/><rect x="1416.61" y="717.89" width="43.51" height="43.49" style="fill:#dfdfdf"/><rect x="1416.61" y="674.4" width="43.51" height="43.49" style="fill:#e8e8e8"/><rect x="1416.61" y="630.91" width="43.51" height="43.49" style="fill:#ededed"/><rect x="1416.61" y="587.42" width="43.51" height="43.5" style="fill:#fff"/><rect x="1416.61" y="543.93" width="43.51" height="43.49" style="fill:#f2f2f2"/><rect x="1416.61" y="500.45" width="43.51" height="43.49" style="fill:#fff"/><rect x="1416.61" y="456.96" width="43.51" height="43.49" style="fill:#f3f3f3"/><rect x="1373.1" y="456.96" width="43.51" height="43.49" style="fill:#fff"/><rect x="1373.1" y="500.45" width="43.51" height="43.49" style="fill:#efefef"/><rect x="1373.1" y="543.93" width="43.51" height="43.49" style="fill:#fefefe"/><rect x="1373.1" y="587.43" width="43.51" height="43.49" style="fill:#f3f3f3"/><rect x="1373.1" y="630.91" width="43.51" height="43.49" style="fill:#e2e2e2"/><rect x="1373.1" y="674.4" width="43.51" height="43.49" style="fill:#e2e2e2"/><rect x="1373.1" y="717.89" width="43.51" height="43.49" style="fill:#e6e6e6"/><rect x="1373.1" y="761.38" width="43.51" height="43.49" style="fill:#dfdfdf"/><rect x="1373.1" y="804.87" width="43.51" height="43.5" style="fill:#dadada"/><rect x="1329.59" y="804.87" width="43.51" height="43.49" style="fill:#dadada"/><rect x="1329.59" y="761.38" width="43.51" height="43.49" style="fill:#e1e1e1"/><rect x="1329.59" y="717.89" width="43.51" height="43.49" style="fill:#e6e6e6"/><rect x="1329.59" y="674.4" width="43.51" height="43.49" style="fill:#e6e6e6"/><rect x="1329.59" y="630.91" width="43.51" height="43.49" style="fill:#e6e6e6"/><rect x="1329.59" y="587.42" width="43.51" height="43.5" style="fill:#fff"/><rect x="1329.59" y="543.93" width="43.51" height="43.49" style="fill:#f1f1f1"/><rect x="1329.59" y="500.45" width="43.51" height="43.49" style="fill:#fff"/><rect x="1329.59" y="456.96" width="43.51" height="43.49" style="fill:#f1f1f1"/><rect x="1286.08" y="456.96" width="43.51" height="43.49" style="fill:#f4f4f4"/><rect x="1286.08" y="500.45" width="43.51" height="43.49" style="fill:#f4f4f4"/><rect x="1286.08" y="543.93" width="43.51" height="43.49" style="fill:#ebebeb"/><rect x="1286.08" y="587.43" width="43.51" height="43.49" style="fill:#e8e8e8"/><rect x="1286.08" y="630.91" width="43.51" height="43.49" style="fill:#fff"/><rect x="1286.08" y="674.4" width="43.51" height="43.49" style="fill:#e5e5e5"/><rect x="1286.08" y="717.89" width="43.51" height="43.49" style="fill:#e5e5e5"/><rect x="1286.08" y="761.38" width="43.51" height="43.49" style="fill:#dfdfdf"/><rect x="1286.08" y="804.87" width="43.51" height="43.5" style="fill:#dadada"/><rect x="1242.57" y="804.87" width="43.52" height="43.49" style="fill:#dadada"/><rect x="1242.57" y="761.38" width="43.52" height="43.49" style="fill:#dfdfdf"/><rect x="1242.57" y="717.89" width="43.52" height="43.49" style="fill:#e9e9e9"/><rect x="1242.57" y="674.4" width="43.52" height="43.49" style="fill:#f3f3f3"/><rect x="1242.57" y="630.91" width="43.52" height="43.48" style="fill:#eaeaea"/><rect x="1242.57" y="587.42" width="43.52" height="43.5" style="fill:#fff"/><rect x="1242.57" y="543.93" width="43.52" height="43.49" style="fill:#f4f4f4"/><rect x="1242.57" y="500.44" width="43.52" height="43.49" style="fill:#fff"/><rect x="1242.57" y="456.96" width="43.52" height="43.48" style="fill:#e4e4e4"/><rect x="1199.06" y="456.96" width="43.51" height="43.49" style="fill:#f7f7f7"/><rect x="1199.06" y="500.45" width="43.51" height="43.49" style="fill:#e9e9e9"/><rect x="1199.06" y="543.93" width="43.51" height="43.49" style="fill:#fff"/><rect x="1199.06" y="587.43" width="43.51" height="43.49" style="fill:#e9e9e9"/><rect x="1199.06" y="630.91" width="43.51" height="43.49" style="fill:#fff"/><rect x="1199.06" y="674.4" width="43.51" height="43.49" style="fill:#ebebeb"/><rect x="1199.06" y="717.89" width="43.51" height="43.49" style="fill:#e9e9e9"/><rect x="1199.06" y="761.38" width="43.51" height="43.49" style="fill:#e1e1e1"/><rect x="1199.06" y="804.87" width="43.51" height="43.5" style="fill:#dadada"/><rect x="1160.12" y="196.02" width="38.94" height="43.48" style="fill:#fff"/><polygon points="1199.06 252.96 1199.06 239.51 1160.12 239.51 1160.12 283 1199.06 283 1199.06 252.96" style="fill:#f6f6f6"/><rect x="1160.12" y="283" width="38.94" height="43.49" style="fill:#fff"/><rect x="1160.12" y="326.48" width="38.94" height="43.49" style="fill:#fff"/><rect x="1160.12" y="369.97" width="38.94" height="43.49" style="fill:#fff"/><rect x="1160.12" y="413.47" width="38.94" height="43.49" style="fill:#ececec"/><rect x="1116.61" y="413.46" width="43.51" height="43.49" style="fill:#fff"/><rect x="1116.61" y="369.97" width="43.51" height="43.49" style="fill:#e5e5e5"/><rect x="1116.61" y="326.48" width="43.51" height="43.49" style="fill:#fff"/><rect x="1116.61" y="283" width="43.51" height="43.48" style="fill:#f6f6f6"/><rect x="1116.61" y="239.5" width="43.51" height="43.5" style="fill:#fff"/><rect x="1116.61" y="196.02" width="43.51" height="43.48" style="fill:#f6f6f6"/><rect x="1073.1" y="196.02" width="43.51" height="43.48" style="fill:#fff"/><rect x="1073.1" y="239.51" width="43.51" height="43.49" style="fill:#fbfbfb"/><rect x="1073.1" y="283" width="43.51" height="43.49" style="fill:#fff"/><rect x="1073.1" y="326.48" width="43.51" height="43.49" style="fill:#fcfcfc"/><rect x="1073.1" y="369.97" width="43.51" height="43.49" style="fill:#fff"/><rect x="1073.1" y="413.47" width="43.51" height="43.49" style="fill:#fbfbfb"/><rect x="1029.59" y="413.46" width="43.51" height="43.49" style="fill:#f2f2f2"/><rect x="1029.59" y="369.97" width="43.51" height="43.49" style="fill:#f5f5f5"/><rect x="1029.59" y="326.48" width="43.51" height="43.49" style="fill:#fff"/><rect x="1029.59" y="283" width="43.51" height="43.48" style="fill:#f4f4f4"/><rect x="1029.59" y="239.5" width="43.51" height="43.5" style="fill:#fff"/><rect x="1029.59" y="196.02" width="43.51" height="43.48" style="fill:#fcfcfc"/><rect x="986.08" y="196.02" width="43.51" height="43.48" style="fill:#fff"/><rect x="986.08" y="239.5" width="43.51" height="43.49" style="fill:#eee"/><rect x="986.08" y="283" width="43.51" height="43.49" style="fill:#fff"/><rect x="986.08" y="326.48" width="43.51" height="43.49" style="fill:#fbfbfb"/><rect x="986.08" y="369.97" width="43.51" height="43.49" style="fill:#fff"/><rect x="986.08" y="413.46" width="43.51" height="43.49" style="fill:#e4e4e4"/><rect x="942.57" y="413.46" width="43.51" height="43.49" style="fill:#fff"/><rect x="942.57" y="369.97" width="43.51" height="43.49" style="fill:#fff"/><rect x="942.57" y="326.48" width="43.51" height="43.49" style="fill:#fff"/><rect x="942.57" y="283" width="43.51" height="43.48" style="fill:#fff"/><rect x="942.57" y="239.5" width="43.51" height="43.5" style="fill:#fff"/><rect x="942.57" y="196.02" width="43.51" height="43.48" style="fill:#fff"/><rect x="899.06" y="196.02" width="43.51" height="43.48" style="fill:#fff"/><rect x="899.06" y="239.5" width="43.51" height="43.49" style="fill:#f5f5f5"/><rect x="899.06" y="283" width="43.51" height="43.49" style="fill:#fff"/><rect x="899.06" y="326.48" width="43.51" height="43.49" style="fill:#fff"/><rect x="899.06" y="369.97" width="43.51" height="43.49" style="fill:#fff"/><rect x="899.06" y="413.46" width="43.51" height="43.49" style="fill:#f5f5f5"/><rect x="1160.12" y="456.96" width="38.94" height="43.49" style="fill:#fff"/><rect x="1160.12" y="500.45" width="38.94" height="43.49" style="fill:#e4e4e4"/><rect x="1160.12" y="543.93" width="38.94" height="43.49" style="fill:#eee"/><rect x="1160.12" y="587.43" width="38.94" height="43.49" style="fill:#dfdfdf"/><rect x="1160.12" y="630.91" width="38.94" height="43.49" style="fill:#e4e4e4"/><rect x="1160.12" y="674.4" width="38.94" height="43.49" style="fill:#e0e0e0"/><rect x="1160.12" y="717.89" width="38.94" height="43.49" style="fill:#dfdfdf"/><rect x="1160.12" y="761.38" width="38.94" height="43.49" style="fill:#dfdfdf"/><rect x="1160.12" y="804.87" width="38.94" height="43.5" style="fill:#dadada"/><rect x="1116.61" y="804.87" width="43.51" height="43.49" style="fill:#dadada"/><rect x="1116.61" y="761.38" width="43.51" height="43.49" style="fill:#e1e1e1"/><rect x="1116.61" y="717.89" width="43.51" height="43.49" style="fill:#dfdfdf"/><rect x="1116.61" y="674.4" width="43.51" height="43.49" style="fill:#e8e8e8"/><rect x="1116.61" y="630.91" width="43.51" height="43.49" style="fill:#ededed"/><rect x="1116.61" y="587.42" width="43.51" height="43.5" style="fill:#fff"/><rect x="1116.61" y="543.93" width="43.51" height="43.49" style="fill:#f2f2f2"/><rect x="1116.61" y="500.45" width="43.51" height="43.49" style="fill:#fff"/><rect x="1116.61" y="456.96" width="43.51" height="43.49" style="fill:#f3f3f3"/><rect x="1073.1" y="456.96" width="43.51" height="43.49" style="fill:#fff"/><rect x="1073.1" y="500.45" width="43.51" height="43.49" style="fill:#efefef"/><rect x="1073.1" y="543.93" width="43.51" height="43.49" style="fill:#fefefe"/><rect x="1073.1" y="587.43" width="43.51" height="43.49" style="fill:#f3f3f3"/><rect x="1073.1" y="630.91" width="43.51" height="43.49" style="fill:#e2e2e2"/><rect x="1073.1" y="674.4" width="43.51" height="43.49" style="fill:#e2e2e2"/><rect x="1073.1" y="717.89" width="43.51" height="43.49" style="fill:#e6e6e6"/><rect x="1073.1" y="761.38" width="43.51" height="43.49" style="fill:#dfdfdf"/><rect x="1073.1" y="804.87" width="43.51" height="43.5" style="fill:#dadada"/><rect x="1029.59" y="804.87" width="43.51" height="43.49" style="fill:#dadada"/><rect x="1029.59" y="761.38" width="43.51" height="43.49" style="fill:#e1e1e1"/><rect x="1029.59" y="717.89" width="43.51" height="43.49" style="fill:#e6e6e6"/><rect x="1029.59" y="674.4" width="43.51" height="43.49" style="fill:#e6e6e6"/><rect x="1029.59" y="630.91" width="43.51" height="43.49" style="fill:#e6e6e6"/><rect x="1029.59" y="587.42" width="43.51" height="43.5" style="fill:#fff"/><rect x="1029.59" y="543.93" width="43.51" height="43.49" style="fill:#f1f1f1"/><rect x="1029.59" y="500.45" width="43.51" height="43.49" style="fill:#fff"/><rect x="1029.59" y="456.96" width="43.51" height="43.49" style="fill:#f1f1f1"/><rect x="986.08" y="456.96" width="43.51" height="43.49" style="fill:#f4f4f4"/><rect x="986.08" y="500.45" width="43.51" height="43.49" style="fill:#f4f4f4"/><rect x="986.08" y="543.93" width="43.51" height="43.49" style="fill:#ebebeb"/><rect x="986.08" y="587.43" width="43.51" height="43.49" style="fill:#e8e8e8"/><rect x="986.08" y="630.91" width="43.51" height="43.49" style="fill:#fff"/><rect x="986.08" y="674.4" width="43.51" height="43.49" style="fill:#e5e5e5"/><rect x="986.08" y="717.89" width="43.51" height="43.49" style="fill:#e5e5e5"/><rect x="986.08" y="761.38" width="43.51" height="43.49" style="fill:#dfdfdf"/><rect x="986.08" y="804.87" width="43.51" height="43.5" style="fill:#dadada"/><rect x="942.57" y="804.87" width="43.51" height="43.49" style="fill:#dadada"/><rect x="942.57" y="761.38" width="43.51" height="43.49" style="fill:#dfdfdf"/><rect x="942.57" y="717.89" width="43.51" height="43.49" style="fill:#e9e9e9"/><rect x="942.57" y="674.4" width="43.51" height="43.49" style="fill:#f3f3f3"/><rect x="942.57" y="630.91" width="43.51" height="43.48" style="fill:#eaeaea"/><rect x="942.57" y="587.42" width="43.51" height="43.5" style="fill:#fff"/><rect x="942.57" y="543.93" width="43.51" height="43.49" style="fill:#f4f4f4"/><rect x="942.57" y="500.44" width="43.51" height="43.49" style="fill:#fff"/><rect x="942.57" y="456.96" width="43.51" height="43.48" style="fill:#f5f5f5"/><rect x="899.06" y="456.96" width="43.51" height="43.49" style="fill:#f7f7f7"/><rect x="899.06" y="500.45" width="43.51" height="43.49" style="fill:#e9e9e9"/><rect x="899.06" y="543.93" width="43.51" height="43.49" style="fill:#fff"/><rect x="899.06" y="587.43" width="43.51" height="43.49" style="fill:#e0e0e0"/><rect x="899.06" y="630.91" width="43.51" height="43.49" style="fill:#fff"/><rect x="899.06" y="674.4" width="43.51" height="43.49" style="fill:#ebebeb"/><rect x="899.06" y="717.89" width="43.51" height="43.49" style="fill:#e9e9e9"/><rect x="899.06" y="761.38" width="43.51" height="43.49" style="fill:#e1e1e1"/><rect x="899.06" y="804.87" width="43.51" height="43.5" style="fill:#dadada"/></svg>