<svg id="ed8d60c9-8de0-4d8c-85e1-648cb6484b89" data-name="Layer 1" xmlns="http://www.w3.org/2000/svg" viewBox="0 0 1500 855"><g style="opacity:0.5"><rect width="1492.66" height="855" style="fill:#fff"/><rect x="861.06" y="202.66" width="38.94" height="43.48" style="fill:#fff"/><polygon points="900 259.6 900 246.15 861.06 246.15 861.06 289.63 900 289.63 900 259.6" style="fill:#f6f6f6"/><rect x="861.06" y="289.63" width="38.94" height="43.49" style="fill:#fff"/><rect x="861.06" y="333.12" width="38.94" height="43.49" style="fill:#fff"/><rect x="861.06" y="376.61" width="38.94" height="43.49" style="fill:#fff"/><rect x="861.06" y="420.1" width="38.94" height="43.49" style="fill:#ececec"/><rect x="817.55" y="420.1" width="43.51" height="43.49" style="fill:#fff"/><rect x="817.55" y="376.61" width="43.51" height="43.49" style="fill:#f5f5f5"/><rect x="817.55" y="333.12" width="43.51" height="43.49" style="fill:#fff"/><rect x="817.55" y="289.63" width="43.51" height="43.48" style="fill:#f6f6f6"/><rect x="817.55" y="246.14" width="43.51" height="43.49" style="fill:#fff"/><rect x="817.55" y="202.66" width="43.51" height="43.48" style="fill:#fff"/><rect x="774.04" y="202.66" width="43.51" height="43.48" style="fill:#fff"/><rect x="774.04" y="246.14" width="43.51" height="43.49" style="fill:#fbfbfb"/><rect x="774.04" y="289.63" width="43.51" height="43.49" style="fill:#fff"/><rect x="774.04" y="333.12" width="43.51" height="43.49" style="fill:#fcfcfc"/><rect x="774.04" y="376.61" width="43.51" height="43.49" style="fill:#fff"/><rect x="774.04" y="420.1" width="43.51" height="43.49" style="fill:#fbfbfb"/><rect x="730.53" y="420.1" width="43.51" height="43.49" style="fill:#f2f2f2"/><rect x="730.53" y="376.61" width="43.51" height="43.49" style="fill:#f5f5f5"/><rect x="730.53" y="333.12" width="43.51" height="43.49" style="fill:#fff"/><rect x="730.53" y="289.63" width="43.51" height="43.48" style="fill:#f4f4f4"/><rect x="730.53" y="246.14" width="43.51" height="43.49" style="fill:#fff"/><rect x="730.53" y="202.66" width="43.51" height="43.48" style="fill:#fcfcfc"/><rect x="687.02" y="202.66" width="43.51" height="43.49" style="fill:#fff"/><rect x="687.02" y="246.14" width="43.51" height="43.49" style="fill:#eee"/><rect x="687.02" y="289.63" width="43.51" height="43.49" style="fill:#fff"/><rect x="687.02" y="333.12" width="43.51" height="43.49" style="fill:#fbfbfb"/><rect x="687.02" y="376.6" width="43.51" height="43.49" style="fill:#fff"/><rect x="687.02" y="420.1" width="43.51" height="43.49" style="fill:#e4e4e4"/><rect x="643.51" y="420.1" width="43.51" height="43.49" style="fill:#fff"/><rect x="643.51" y="376.6" width="43.51" height="43.49" style="fill:#fff"/><rect x="643.51" y="333.11" width="43.51" height="43.49" style="fill:#fff"/><rect x="643.51" y="289.63" width="43.51" height="43.48" style="fill:#eee"/><rect x="643.51" y="246.14" width="43.51" height="43.49" style="fill:#fff"/><rect x="643.51" y="202.66" width="43.51" height="43.49" style="fill:#f5f5f5"/><rect x="600" y="202.66" width="43.51" height="43.49" style="fill:#fff"/><rect x="600" y="246.14" width="43.51" height="43.49" style="fill:#f5f5f5"/><rect x="600" y="289.63" width="43.51" height="43.49" style="fill:#fff"/><rect x="600" y="333.12" width="43.51" height="43.49" style="fill:#f5f5f5"/><rect x="600" y="376.6" width="43.51" height="43.49" style="fill:#fff"/><rect x="600" y="420.1" width="43.51" height="43.49" style="fill:#f5f5f5"/><rect x="861.06" y="463.59" width="38.94" height="43.49" style="fill:#fff"/><rect x="861.06" y="507.08" width="38.94" height="43.49" style="fill:#e4e4e4"/><rect x="861.06" y="550.57" width="38.94" height="43.49" style="fill:#eee"/><rect x="861.06" y="594.06" width="38.94" height="43.49" style="fill:#dfdfdf"/><rect x="861.06" y="637.55" width="38.94" height="43.49" style="fill:#e4e4e4"/><rect x="861.06" y="681.04" width="38.94" height="43.49" style="fill:#e0e0e0"/><rect x="861.06" y="724.53" width="38.94" height="43.49" style="fill:#dfdfdf"/><rect x="861.06" y="768.02" width="38.94" height="43.49" style="fill:#dfdfdf"/><rect x="861.06" y="811.5" width="38.94" height="43.5" style="fill:#dadada"/><rect x="817.55" y="811.5" width="43.51" height="43.49" style="fill:#dadada"/><rect x="817.55" y="768.01" width="43.51" height="43.49" style="fill:#e1e1e1"/><rect x="817.55" y="724.53" width="43.51" height="43.49" style="fill:#dfdfdf"/><rect x="817.55" y="681.04" width="43.51" height="43.49" style="fill:#e8e8e8"/><rect x="817.55" y="637.55" width="43.51" height="43.49" style="fill:#ededed"/><rect x="817.55" y="594.05" width="43.51" height="43.5" style="fill:#e0e0e0"/><rect x="817.55" y="550.57" width="43.51" height="43.49" style="fill:#f2f2f2"/><rect x="817.55" y="507.08" width="43.51" height="43.49" style="fill:#fff"/><rect x="817.55" y="463.59" width="43.51" height="43.49" style="fill:#f3f3f3"/><rect x="774.04" y="463.59" width="43.51" height="43.49" style="fill:#fff"/><rect x="774.04" y="507.08" width="43.51" height="43.49" style="fill:#efefef"/><rect x="774.04" y="550.57" width="43.51" height="43.49" style="fill:#fefefe"/><rect x="774.04" y="594.06" width="43.51" height="43.49" style="fill:#f3f3f3"/><rect x="774.04" y="637.55" width="43.51" height="43.49" style="fill:#e2e2e2"/><rect x="774.04" y="681.04" width="43.51" height="43.49" style="fill:#e2e2e2"/><rect x="774.04" y="724.53" width="43.51" height="43.49" style="fill:#e6e6e6"/><rect x="774.04" y="768.02" width="43.51" height="43.49" style="fill:#dfdfdf"/><rect x="774.04" y="811.5" width="43.51" height="43.5" style="fill:#dadada"/><rect x="730.53" y="811.5" width="43.51" height="43.49" style="fill:#dadada"/><rect x="730.53" y="768.01" width="43.51" height="43.49" style="fill:#e1e1e1"/><rect x="730.53" y="724.53" width="43.51" height="43.49" style="fill:#e6e6e6"/><rect x="730.53" y="681.04" width="43.51" height="43.49" style="fill:#e6e6e6"/><rect x="730.53" y="637.55" width="43.51" height="43.49" style="fill:#e6e6e6"/><rect x="730.53" y="594.05" width="43.51" height="43.5" style="fill:#fff"/><rect x="730.53" y="550.57" width="43.51" height="43.49" style="fill:#f1f1f1"/><rect x="730.53" y="507.08" width="43.51" height="43.49" style="fill:#fff"/><rect x="730.53" y="463.59" width="43.51" height="43.49" style="fill:#f1f1f1"/><rect x="687.02" y="463.59" width="43.51" height="43.49" style="fill:#f4f4f4"/><rect x="687.02" y="507.08" width="43.51" height="43.49" style="fill:#f4f4f4"/><rect x="687.02" y="550.57" width="43.51" height="43.49" style="fill:#ebebeb"/><rect x="687.02" y="594.06" width="43.51" height="43.49" style="fill:#e8e8e8"/><rect x="687.02" y="637.55" width="43.51" height="43.49" style="fill:#fff"/><rect x="687.02" y="681.04" width="43.51" height="43.49" style="fill:#e5e5e5"/><rect x="687.02" y="724.53" width="43.51" height="43.49" style="fill:#e5e5e5"/><rect x="687.02" y="768.02" width="43.51" height="43.49" style="fill:#dfdfdf"/><rect x="687.02" y="811.5" width="43.51" height="43.5" style="fill:#dadada"/><rect x="643.51" y="811.5" width="43.51" height="43.49" style="fill:#dadada"/><rect x="643.51" y="768.01" width="43.51" height="43.49" style="fill:#dfdfdf"/><rect x="643.51" y="724.53" width="43.51" height="43.49" style="fill:#e9e9e9"/><rect x="643.51" y="681.03" width="43.51" height="43.49" style="fill:#f3f3f3"/><rect x="643.51" y="637.55" width="43.51" height="43.48" style="fill:#eaeaea"/><rect x="643.51" y="594.05" width="43.51" height="43.5" style="fill:#fff"/><rect x="643.51" y="550.57" width="43.51" height="43.49" style="fill:#f4f4f4"/><rect x="643.51" y="507.08" width="43.51" height="43.49" style="fill:#fff"/><rect x="643.51" y="463.59" width="43.51" height="43.48" style="fill:#e4e4e4"/><rect x="600" y="463.59" width="43.51" height="43.49" style="fill:#f7f7f7"/><rect x="600" y="507.08" width="43.51" height="43.49" style="fill:#e9e9e9"/><rect x="600" y="550.57" width="43.51" height="43.49" style="fill:#fff"/><rect x="600" y="594.06" width="43.51" height="43.49" style="fill:#e9e9e9"/><rect x="600" y="637.55" width="43.51" height="43.49" style="fill:#fff"/><rect x="600" y="681.04" width="43.51" height="43.49" style="fill:#ebebeb"/><rect x="600" y="724.53" width="43.51" height="43.49" style="fill:#e9e9e9"/><rect x="600" y="768.02" width="43.51" height="43.49" style="fill:#e1e1e1"/><rect x="600" y="811.5" width="43.51" height="43.5" style="fill:#dadada"/><rect x="561.06" y="202.66" width="38.94" height="43.48" style="fill:#fff"/><polygon points="600 259.59 600 246.14 561.06 246.14 561.06 289.63 600 289.63 600 259.59" style="fill:#f6f6f6"/><rect x="561.06" y="289.63" width="38.94" height="43.49" style="fill:#fff"/><rect x="561.06" y="333.12" width="38.94" height="43.49" style="fill:#efefef"/><rect x="561.06" y="376.6" width="38.94" height="43.49" style="fill:#fff"/><rect x="561.06" y="420.1" width="38.94" height="43.49" style="fill:#ececec"/><rect x="517.55" y="420.09" width="43.51" height="43.5" style="fill:#fff"/><rect x="517.55" y="376.6" width="43.51" height="43.49" style="fill:#e5e5e5"/><rect x="517.55" y="333.11" width="43.51" height="43.49" style="fill:#fff"/><rect x="517.55" y="289.63" width="43.51" height="43.48" style="fill:#f6f6f6"/><rect x="517.55" y="246.13" width="43.51" height="43.49" style="fill:#fff"/><rect x="517.55" y="202.66" width="43.51" height="43.48" style="fill:#fff"/><rect x="474.04" y="202.66" width="43.51" height="43.48" style="fill:#fff"/><rect x="474.04" y="246.14" width="43.51" height="43.49" style="fill:#fff"/><rect x="474.04" y="289.63" width="43.51" height="43.49" style="fill:#fff"/><rect x="474.04" y="333.12" width="43.51" height="43.49" style="fill:#fcfcfc"/><rect x="474.04" y="376.6" width="43.51" height="43.49" style="fill:#fff"/><rect x="474.04" y="420.1" width="43.51" height="43.49" style="fill:#fbfbfb"/><rect x="430.53" y="420.09" width="43.51" height="43.5" style="fill:#f2f2f2"/><rect x="430.53" y="376.6" width="43.51" height="43.49" style="fill:#f5f5f5"/><rect x="430.53" y="333.11" width="43.51" height="43.49" style="fill:#fff"/><rect x="430.53" y="289.63" width="43.51" height="43.48" style="fill:#f4f4f4"/><rect x="430.53" y="246.13" width="43.51" height="43.49" style="fill:#fff"/><rect x="430.53" y="202.66" width="43.51" height="43.48" style="fill:#fcfcfc"/><rect x="387.02" y="202.65" width="43.51" height="43.49" style="fill:#fff"/><rect x="387.02" y="246.13" width="43.51" height="43.49" style="fill:#fff"/><rect x="387.02" y="289.63" width="43.51" height="43.49" style="fill:#fff"/><rect x="387.02" y="333.11" width="43.51" height="43.49" style="fill:#fbfbfb"/><rect x="387.02" y="376.6" width="43.51" height="43.49" style="fill:#fff"/><rect x="387.02" y="420.09" width="43.51" height="43.49" style="fill:#e4e4e4"/><rect x="343.51" y="420.09" width="43.51" height="43.49" style="fill:#fff"/><rect x="343.51" y="376.6" width="43.51" height="43.49" style="fill:#fff"/><rect x="343.51" y="333.11" width="43.51" height="43.49" style="fill:#fff"/><rect x="343.51" y="289.63" width="43.51" height="43.48" style="fill:#fff"/><rect x="343.51" y="246.13" width="43.51" height="43.49" style="fill:#fff"/><rect x="343.51" y="202.65" width="43.51" height="43.49" style="fill:#f5f5f5"/><rect x="300" y="202.65" width="43.51" height="43.49" style="fill:#fff"/><rect x="300" y="246.13" width="43.51" height="43.49" style="fill:#f5f5f5"/><rect x="300" y="289.63" width="43.51" height="43.49" style="fill:#fff"/><rect x="300" y="333.11" width="43.51" height="43.49" style="fill:#f5f5f5"/><rect x="300" y="376.6" width="43.51" height="43.49" style="fill:#fff"/><rect x="300" y="420.09" width="43.51" height="43.49" style="fill:#f5f5f5"/><rect x="561.06" y="463.59" width="38.94" height="43.49" style="fill:#fff"/><rect x="561.06" y="507.08" width="38.94" height="43.49" style="fill:#e4e4e4"/><rect x="561.06" y="550.56" width="38.94" height="43.49" style="fill:#eee"/><rect x="561.06" y="594.06" width="38.94" height="43.49" style="fill:#fff"/><rect x="561.06" y="637.54" width="38.94" height="43.49" style="fill:#fff"/><rect x="561.06" y="681.03" width="38.94" height="43.49" style="fill:#e0e0e0"/><rect x="561.06" y="724.52" width="38.94" height="43.49" style="fill:#dfdfdf"/><rect x="561.06" y="768.01" width="38.94" height="43.49" style="fill:#dfdfdf"/><rect x="561.06" y="811.5" width="38.94" height="43.5" style="fill:#dadada"/><rect x="517.55" y="811.5" width="43.51" height="43.49" style="fill:#dadada"/><rect x="517.55" y="768.01" width="43.51" height="43.49" style="fill:#e1e1e1"/><rect x="517.55" y="724.52" width="43.51" height="43.49" style="fill:#dfdfdf"/><rect x="517.55" y="681.03" width="43.51" height="43.49" style="fill:#e8e8e8"/><rect x="517.55" y="637.54" width="43.51" height="43.49" style="fill:#ededed"/><rect x="517.55" y="594.05" width="43.51" height="43.5" style="fill:#fff"/><rect x="517.55" y="550.56" width="43.51" height="43.49" style="fill:#f2f2f2"/><rect x="517.55" y="507.08" width="43.51" height="43.49" style="fill:#fff"/><rect x="517.55" y="463.59" width="43.51" height="43.49" style="fill:#f3f3f3"/><rect x="474.04" y="463.59" width="43.51" height="43.49" style="fill:#fff"/><rect x="474.04" y="507.08" width="43.51" height="43.49" style="fill:#efefef"/><rect x="474.04" y="550.56" width="43.51" height="43.49" style="fill:#fefefe"/><rect x="474.04" y="594.06" width="43.51" height="43.49" style="fill:#f3f3f3"/><rect x="474.04" y="637.54" width="43.51" height="43.49" style="fill:#e2e2e2"/><rect x="474.04" y="681.03" width="43.51" height="43.49" style="fill:#e2e2e2"/><rect x="474.04" y="724.52" width="43.51" height="43.49" style="fill:#e6e6e6"/><rect x="474.04" y="768.01" width="43.51" height="43.49" style="fill:#dfdfdf"/><rect x="474.04" y="811.5" width="43.51" height="43.5" style="fill:#dadada"/><rect x="430.53" y="811.5" width="43.51" height="43.49" style="fill:#dadada"/><rect x="430.53" y="768.01" width="43.51" height="43.49" style="fill:#e1e1e1"/><rect x="430.53" y="724.52" width="43.51" height="43.49" style="fill:#e6e6e6"/><rect x="430.53" y="681.03" width="43.51" height="43.49" style="fill:#e6e6e6"/><rect x="430.53" y="637.54" width="43.51" height="43.49" style="fill:#e6e6e6"/><rect x="430.53" y="594.05" width="43.51" height="43.5" style="fill:#fff"/><rect x="430.53" y="550.56" width="43.51" height="43.49" style="fill:#f1f1f1"/><rect x="430.53" y="507.08" width="43.51" height="43.49" style="fill:#fff"/><rect x="430.53" y="463.59" width="43.51" height="43.49" style="fill:#f1f1f1"/><rect x="387.02" y="463.59" width="43.51" height="43.49" style="fill:#f4f4f4"/><rect x="387.02" y="507.08" width="43.51" height="43.49" style="fill:#f4f4f4"/><rect x="387.02" y="550.56" width="43.51" height="43.49" style="fill:#ebebeb"/><rect x="387.02" y="594.06" width="43.51" height="43.49" style="fill:#e8e8e8"/><rect x="387.02" y="637.54" width="43.51" height="43.49" style="fill:#fff"/><rect x="387.02" y="681.03" width="43.51" height="43.49" style="fill:#e5e5e5"/><rect x="387.02" y="724.52" width="43.51" height="43.49" style="fill:#e5e5e5"/><rect x="387.02" y="768.01" width="43.51" height="43.49" style="fill:#dfdfdf"/><rect x="387.02" y="811.5" width="43.51" height="43.5" style="fill:#dadada"/><rect x="343.51" y="811.5" width="43.51" height="43.49" style="fill:#dadada"/><rect x="343.51" y="768.01" width="43.51" height="43.49" style="fill:#dfdfdf"/><rect x="343.51" y="724.52" width="43.51" height="43.49" style="fill:#e9e9e9"/><rect x="343.51" y="681.03" width="43.51" height="43.49" style="fill:#f3f3f3"/><rect x="343.51" y="637.54" width="43.51" height="43.48" style="fill:#eaeaea"/><rect x="343.51" y="594.05" width="43.51" height="43.5" style="fill:#fff"/><rect x="343.51" y="550.56" width="43.51" height="43.49" style="fill:#f4f4f4"/><rect x="343.51" y="507.07" width="43.51" height="43.49" style="fill:#fff"/><rect x="343.51" y="463.59" width="43.51" height="43.48" style="fill:#e4e4e4"/><rect x="300" y="463.59" width="43.51" height="43.49" style="fill:#f7f7f7"/><rect x="300" y="507.08" width="43.51" height="43.49" style="fill:#e9e9e9"/><rect x="300" y="550.56" width="43.51" height="43.49" style="fill:#fff"/><rect x="300" y="594.06" width="43.51" height="43.49" style="fill:#e9e9e9"/><rect x="300" y="637.54" width="43.51" height="43.49" style="fill:#fff"/><rect x="300" y="681.03" width="43.51" height="43.49" style="fill:#ebebeb"/><rect x="300" y="724.52" width="43.51" height="43.49" style="fill:#e9e9e9"/><rect x="300" y="768.01" width="43.51" height="43.49" style="fill:#e1e1e1"/><rect x="300" y="811.5" width="43.51" height="43.5" style="fill:#dadada"/><rect x="261.06" y="202.66" width="38.94" height="43.48" style="fill:#fff"/><polygon points="300 259.59 300 246.14 261.06 246.14 261.06 289.63 300 289.63 300 259.59" style="fill:#f6f6f6"/><rect x="261.06" y="289.63" width="38.94" height="43.49" style="fill:#fff"/><rect x="261.06" y="333.12" width="38.94" height="43.49" style="fill:#efefef"/><rect x="261.06" y="376.6" width="38.94" height="43.49" style="fill:#fff"/><rect x="261.06" y="420.1" width="38.94" height="43.49" style="fill:#ececec"/><rect x="217.55" y="420.09" width="43.51" height="43.5" style="fill:#fff"/><rect x="217.55" y="376.6" width="43.51" height="43.49" style="fill:#fff"/><rect x="217.55" y="333.11" width="43.51" height="43.49" style="fill:#fff"/><rect x="217.55" y="289.63" width="43.51" height="43.48" style="fill:#f6f6f6"/><rect x="217.55" y="246.13" width="43.51" height="43.49" style="fill:#fff"/><rect x="217.55" y="202.66" width="43.51" height="43.48" style="fill:#f6f6f6"/><rect x="174.04" y="202.66" width="43.51" height="43.48" style="fill:#fff"/><rect x="174.04" y="246.14" width="43.51" height="43.49" style="fill:#ebebeb"/><rect x="174.04" y="289.63" width="43.51" height="43.49" style="fill:#fff"/><rect x="174.04" y="333.12" width="43.51" height="43.49" style="fill:#fcfcfc"/><rect x="174.04" y="376.6" width="43.51" height="43.49" style="fill:#fff"/><rect x="174.04" y="420.1" width="43.51" height="43.49" style="fill:#fbfbfb"/><rect x="130.53" y="420.09" width="43.51" height="43.5" style="fill:#f2f2f2"/><rect x="130.53" y="376.6" width="43.51" height="43.49" style="fill:#fff"/><rect x="130.53" y="333.11" width="43.51" height="43.49" style="fill:#fff"/><rect x="130.53" y="289.63" width="43.51" height="43.48" style="fill:#fff"/><rect x="130.53" y="246.13" width="43.51" height="43.49" style="fill:#fff"/><rect x="130.53" y="202.66" width="43.51" height="43.48" style="fill:#fcfcfc"/><rect x="87.02" y="202.65" width="43.51" height="43.49" style="fill:#fff"/><rect x="87.02" y="246.13" width="43.51" height="43.49" style="fill:#fff"/><rect x="87.02" y="289.63" width="43.51" height="43.49" style="fill:#fff"/><rect x="87.02" y="333.11" width="43.51" height="43.49" style="fill:#fbfbfb"/><rect x="87.02" y="376.6" width="43.51" height="43.49" style="fill:#fff"/><rect x="87.02" y="420.09" width="43.51" height="43.49" style="fill:#e4e4e4"/><rect x="43.51" y="420.09" width="43.51" height="43.49" style="fill:#fff"/><rect x="43.51" y="376.6" width="43.51" height="43.49" style="fill:#fff"/><rect x="43.51" y="333.11" width="43.51" height="43.49" style="fill:#fff"/><rect x="43.51" y="289.63" width="43.51" height="43.48" style="fill:#eee"/><rect x="43.51" y="246.13" width="43.51" height="43.49" style="fill:#fff"/><rect x="43.51" y="202.65" width="43.51" height="43.49" style="fill:#f5f5f5"/><rect y="202.65" width="43.51" height="43.49" style="fill:#fff"/><rect y="246.13" width="43.51" height="43.49" style="fill:#f5f5f5"/><rect y="289.63" width="43.51" height="43.49" style="fill:#fff"/><rect y="333.11" width="43.51" height="43.49" style="fill:#f5f5f5"/><rect y="376.6" width="43.51" height="43.49" style="fill:#fff"/><rect y="420.09" width="43.51" height="43.49" style="fill:#f5f5f5"/><rect x="261.06" y="463.59" width="38.94" height="43.49" style="fill:#fff"/><rect x="261.06" y="507.08" width="38.94" height="43.49" style="fill:#e4e4e4"/><rect x="261.06" y="550.56" width="38.94" height="43.49" style="fill:#eee"/><rect x="261.06" y="594.06" width="38.94" height="43.49" style="fill:#dfdfdf"/><rect x="261.06" y="637.54" width="38.94" height="43.49" style="fill:#e4e4e4"/><rect x="261.06" y="681.03" width="38.94" height="43.49" style="fill:#e0e0e0"/><rect x="261.06" y="724.52" width="38.94" height="43.49" style="fill:#dfdfdf"/><rect x="261.06" y="768.01" width="38.94" height="43.49" style="fill:#dfdfdf"/><rect x="261.06" y="811.5" width="38.94" height="43.5" style="fill:#dadada"/><rect x="217.55" y="811.5" width="43.51" height="43.49" style="fill:#dadada"/><rect x="217.55" y="768.01" width="43.51" height="43.49" style="fill:#e1e1e1"/><rect x="217.55" y="724.52" width="43.51" height="43.49" style="fill:#dfdfdf"/><rect x="217.55" y="681.03" width="43.51" height="43.49" style="fill:#e8e8e8"/><rect x="217.55" y="637.54" width="43.51" height="43.49" style="fill:#ededed"/><rect x="217.55" y="594.05" width="43.51" height="43.5" style="fill:#fff"/><rect x="217.55" y="550.56" width="43.51" height="43.49" style="fill:#f2f2f2"/><rect x="217.55" y="507.08" width="43.51" height="43.49" style="fill:#fff"/><rect x="217.55" y="463.59" width="43.51" height="43.49" style="fill:#f3f3f3"/><rect x="174.04" y="463.59" width="43.51" height="43.49" style="fill:#fff"/><rect x="174.04" y="507.08" width="43.51" height="43.49" style="fill:#efefef"/><rect x="174.04" y="550.56" width="43.51" height="43.49" style="fill:#fefefe"/><rect x="174.04" y="594.06" width="43.51" height="43.49" style="fill:#f3f3f3"/><rect x="174.04" y="637.54" width="43.51" height="43.49" style="fill:#e2e2e2"/><rect x="174.04" y="681.03" width="43.51" height="43.49" style="fill:#e2e2e2"/><rect x="174.04" y="724.52" width="43.51" height="43.49" style="fill:#e6e6e6"/><rect x="174.04" y="768.01" width="43.51" height="43.49" style="fill:#dfdfdf"/><rect x="174.04" y="811.5" width="43.51" height="43.5" style="fill:#dadada"/><rect x="130.53" y="811.5" width="43.51" height="43.49" style="fill:#dadada"/><rect x="130.53" y="768.01" width="43.51" height="43.49" style="fill:#e1e1e1"/><rect x="130.53" y="724.52" width="43.51" height="43.49" style="fill:#e6e6e6"/><rect x="130.53" y="681.03" width="43.51" height="43.49" style="fill:#e6e6e6"/><rect x="130.53" y="637.54" width="43.51" height="43.49" style="fill:#e6e6e6"/><rect x="130.53" y="594.05" width="43.51" height="43.5" style="fill:#fff"/><rect x="130.53" y="550.56" width="43.51" height="43.49" style="fill:#f1f1f1"/><rect x="130.53" y="507.08" width="43.51" height="43.49" style="fill:#fff"/><rect x="130.53" y="463.59" width="43.51" height="43.49" style="fill:#f1f1f1"/><rect x="87.02" y="463.59" width="43.51" height="43.49" style="fill:#f4f4f4"/><rect x="87.02" y="507.08" width="43.51" height="43.49" style="fill:#f4f4f4"/><rect x="87.02" y="550.56" width="43.51" height="43.49" style="fill:#ebebeb"/><rect x="87.02" y="594.06" width="43.51" height="43.49" style="fill:#e8e8e8"/><rect x="87.02" y="637.54" width="43.51" height="43.49" style="fill:#fff"/><rect x="87.02" y="681.03" width="43.51" height="43.49" style="fill:#e5e5e5"/><rect x="87.02" y="724.52" width="43.51" height="43.49" style="fill:#e5e5e5"/><rect x="87.02" y="768.01" width="43.51" height="43.49" style="fill:#dfdfdf"/><rect x="87.02" y="811.5" width="43.51" height="43.5" style="fill:#dadada"/><rect x="43.51" y="811.5" width="43.51" height="43.49" style="fill:#dadada"/><rect x="43.51" y="768.01" width="43.51" height="43.49" style="fill:#dfdfdf"/><rect x="43.51" y="724.52" width="43.51" height="43.49" style="fill:#e9e9e9"/><rect x="43.51" y="681.03" width="43.51" height="43.49" style="fill:#f3f3f3"/><rect x="43.51" y="637.54" width="43.51" height="43.48" style="fill:#eaeaea"/><rect x="43.51" y="594.05" width="43.51" height="43.5" style="fill:#fff"/><rect x="43.51" y="550.56" width="43.51" height="43.49" style="fill:#f4f4f4"/><rect x="43.51" y="507.07" width="43.51" height="43.49" style="fill:#fff"/><rect x="43.51" y="463.59" width="43.51" height="43.48" style="fill:#e4e4e4"/><rect y="463.59" width="43.51" height="43.49" style="fill:#f7f7f7"/><rect y="507.08" width="43.51" height="43.49" style="fill:#e9e9e9"/><rect y="550.56" width="43.51" height="43.49" style="fill:#fff"/><rect y="594.06" width="43.51" height="43.49" style="fill:#e9e9e9"/><rect y="637.54" width="43.51" height="43.49" style="fill:#fff"/><rect y="681.03" width="43.51" height="43.49" style="fill:#ebebeb"/><rect y="724.52" width="43.51" height="43.49" style="fill:#e9e9e9"/><rect y="768.01" width="43.51" height="43.49" style="fill:#e1e1e1"/><rect y="811.5" width="43.51" height="43.5" style="fill:#dadada"/><rect x="1461.06" y="202.66" width="38.94" height="43.48" style="fill:#fff"/><polygon points="1500 259.6 1500 246.15 1461.06 246.15 1461.06 289.63 1500 289.63 1500 259.6" style="fill:#fff"/><rect x="1461.06" y="289.63" width="38.94" height="43.49" style="fill:#fff"/><rect x="1461.06" y="333.12" width="38.94" height="43.49" style="fill:#fff"/><rect x="1461.06" y="376.61" width="38.94" height="43.49" style="fill:#fff"/><rect x="1461.06" y="420.1" width="38.94" height="43.49" style="fill:#ececec"/><rect x="1417.55" y="420.1" width="43.51" height="43.49" style="fill:#fff"/><rect x="1417.55" y="376.61" width="43.51" height="43.49" style="fill:#e5e5e5"/><rect x="1417.55" y="333.12" width="43.51" height="43.49" style="fill:#fff"/><rect x="1417.55" y="289.63" width="43.51" height="43.48" style="fill:#f6f6f6"/><rect x="1417.55" y="246.14" width="43.51" height="43.5" style="fill:#fff"/><rect x="1417.55" y="202.66" width="43.51" height="43.48" style="fill:#f6f6f6"/><rect x="1374.04" y="202.66" width="43.51" height="43.48" style="fill:#fff"/><rect x="1374.04" y="246.14" width="43.51" height="43.49" style="fill:#fff"/><rect x="1374.04" y="289.63" width="43.51" height="43.49" style="fill:#fff"/><rect x="1374.04" y="333.12" width="43.51" height="43.49" style="fill:#fcfcfc"/><rect x="1374.04" y="376.61" width="43.51" height="43.49" style="fill:#fff"/><rect x="1374.04" y="420.1" width="43.51" height="43.49" style="fill:#fbfbfb"/><rect x="1330.53" y="420.1" width="43.51" height="43.49" style="fill:#f2f2f2"/><rect x="1330.53" y="376.61" width="43.51" height="43.49" style="fill:#f5f5f5"/><rect x="1330.53" y="333.12" width="43.51" height="43.49" style="fill:#fff"/><rect x="1330.53" y="289.63" width="43.51" height="43.48" style="fill:#fff"/><rect x="1330.53" y="246.14" width="43.51" height="43.5" style="fill:#fff"/><rect x="1330.53" y="202.66" width="43.51" height="43.48" style="fill:#fcfcfc"/><rect x="1287.02" y="202.66" width="43.51" height="43.48" style="fill:#fff"/><rect x="1287.02" y="246.14" width="43.51" height="43.49" style="fill:#fcfcfc"/><rect x="1287.02" y="289.63" width="43.51" height="43.49" style="fill:#fff"/><rect x="1287.02" y="333.12" width="43.51" height="43.49" style="fill:#fbfbfb"/><rect x="1287.02" y="376.6" width="43.51" height="43.49" style="fill:#fff"/><rect x="1287.02" y="420.1" width="43.51" height="43.49" style="fill:#e4e4e4"/><rect x="1243.51" y="420.1" width="43.52" height="43.49" style="fill:#fff"/><rect x="1243.51" y="376.6" width="43.52" height="43.49" style="fill:#fff"/><rect x="1243.51" y="333.11" width="43.52" height="43.49" style="fill:#fff"/><rect x="1243.51" y="289.63" width="43.52" height="43.48" style="fill:#eee"/><rect x="1243.51" y="246.14" width="43.52" height="43.5" style="fill:#fff"/><rect x="1243.51" y="202.66" width="43.52" height="43.48" style="fill:#fff"/><rect x="1200" y="202.66" width="43.51" height="43.48" style="fill:#fff"/><rect x="1200" y="246.14" width="43.51" height="43.49" style="fill:#fff"/><rect x="1200" y="289.63" width="43.51" height="43.49" style="fill:#fff"/><rect x="1200" y="333.12" width="43.51" height="43.49" style="fill:#f5f5f5"/><rect x="1200" y="376.6" width="43.51" height="43.49" style="fill:#fff"/><rect x="1200" y="420.1" width="43.51" height="43.49" style="fill:#f5f5f5"/><rect x="1461.06" y="463.59" width="38.94" height="43.49" style="fill:#fff"/><rect x="1461.06" y="507.08" width="38.94" height="43.49" style="fill:#e4e4e4"/><rect x="1461.06" y="550.57" width="38.94" height="43.49" style="fill:#eee"/><rect x="1461.06" y="594.06" width="38.94" height="43.49" style="fill:#dfdfdf"/><rect x="1461.06" y="637.55" width="38.94" height="43.49" style="fill:#e4e4e4"/><rect x="1461.06" y="681.04" width="38.94" height="43.49" style="fill:#e0e0e0"/><rect x="1461.06" y="724.53" width="38.94" height="43.49" style="fill:#dfdfdf"/><rect x="1461.06" y="768.02" width="38.94" height="43.49" style="fill:#dfdfdf"/><rect x="1461.06" y="811.5" width="38.94" height="43.5" style="fill:#dadada"/><rect x="1417.55" y="811.5" width="43.51" height="43.49" style="fill:#dadada"/><rect x="1417.55" y="768.01" width="43.51" height="43.49" style="fill:#e1e1e1"/><rect x="1417.55" y="724.53" width="43.51" height="43.49" style="fill:#dfdfdf"/><rect x="1417.55" y="681.04" width="43.51" height="43.49" style="fill:#e8e8e8"/><rect x="1417.55" y="637.55" width="43.51" height="43.49" style="fill:#ededed"/><rect x="1417.55" y="594.05" width="43.51" height="43.5" style="fill:#fff"/><rect x="1417.55" y="550.57" width="43.51" height="43.49" style="fill:#f2f2f2"/><rect x="1417.55" y="507.08" width="43.51" height="43.49" style="fill:#fff"/><rect x="1417.55" y="463.59" width="43.51" height="43.49" style="fill:#f3f3f3"/><rect x="1374.04" y="463.59" width="43.51" height="43.49" style="fill:#fff"/><rect x="1374.04" y="507.08" width="43.51" height="43.49" style="fill:#efefef"/><rect x="1374.04" y="550.57" width="43.51" height="43.49" style="fill:#fefefe"/><rect x="1374.04" y="594.06" width="43.51" height="43.49" style="fill:#f3f3f3"/><rect x="1374.04" y="637.55" width="43.51" height="43.49" style="fill:#e2e2e2"/><rect x="1374.04" y="681.04" width="43.51" height="43.49" style="fill:#e2e2e2"/><rect x="1374.04" y="724.53" width="43.51" height="43.49" style="fill:#e6e6e6"/><rect x="1374.04" y="768.02" width="43.51" height="43.49" style="fill:#dfdfdf"/><rect x="1374.04" y="811.5" width="43.51" height="43.5" style="fill:#dadada"/><rect x="1330.53" y="811.5" width="43.51" height="43.49" style="fill:#dadada"/><rect x="1330.53" y="768.01" width="43.51" height="43.49" style="fill:#e1e1e1"/><rect x="1330.53" y="724.53" width="43.51" height="43.49" style="fill:#e6e6e6"/><rect x="1330.53" y="681.04" width="43.51" height="43.49" style="fill:#e6e6e6"/><rect x="1330.53" y="637.55" width="43.51" height="43.49" style="fill:#e6e6e6"/><rect x="1330.53" y="594.05" width="43.51" height="43.5" style="fill:#fff"/><rect x="1330.53" y="550.57" width="43.51" height="43.49" style="fill:#f1f1f1"/><rect x="1330.53" y="507.08" width="43.51" height="43.49" style="fill:#fff"/><rect x="1330.53" y="463.59" width="43.51" height="43.49" style="fill:#f1f1f1"/><rect x="1287.02" y="463.59" width="43.51" height="43.49" style="fill:#f4f4f4"/><rect x="1287.02" y="507.08" width="43.51" height="43.49" style="fill:#f4f4f4"/><rect x="1287.02" y="550.57" width="43.51" height="43.49" style="fill:#ebebeb"/><rect x="1287.02" y="594.06" width="43.51" height="43.49" style="fill:#e8e8e8"/><rect x="1287.02" y="637.55" width="43.51" height="43.49" style="fill:#fff"/><rect x="1287.02" y="681.04" width="43.51" height="43.49" style="fill:#e5e5e5"/><rect x="1287.02" y="724.53" width="43.51" height="43.49" style="fill:#e5e5e5"/><rect x="1287.02" y="768.02" width="43.51" height="43.49" style="fill:#dfdfdf"/><rect x="1287.02" y="811.5" width="43.51" height="43.5" style="fill:#dadada"/><rect x="1243.51" y="811.5" width="43.52" height="43.49" style="fill:#dadada"/><rect x="1243.51" y="768.01" width="43.52" height="43.49" style="fill:#dfdfdf"/><rect x="1243.51" y="724.53" width="43.52" height="43.49" style="fill:#e9e9e9"/><rect x="1243.51" y="681.03" width="43.52" height="43.49" style="fill:#f3f3f3"/><rect x="1243.51" y="637.55" width="43.52" height="43.48" style="fill:#eaeaea"/><rect x="1243.51" y="594.05" width="43.52" height="43.5" style="fill:#fff"/><rect x="1243.51" y="550.57" width="43.52" height="43.49" style="fill:#f4f4f4"/><rect x="1243.51" y="507.08" width="43.52" height="43.49" style="fill:#fff"/><rect x="1243.51" y="463.59" width="43.52" height="43.48" style="fill:#e4e4e4"/><rect x="1200" y="463.59" width="43.51" height="43.49" style="fill:#f7f7f7"/><rect x="1200" y="507.08" width="43.51" height="43.49" style="fill:#e9e9e9"/><rect x="1200" y="550.57" width="43.51" height="43.49" style="fill:#fff"/><rect x="1200" y="594.06" width="43.51" height="43.49" style="fill:#e9e9e9"/><rect x="1200" y="637.55" width="43.51" height="43.49" style="fill:#fff"/><rect x="1200" y="681.04" width="43.51" height="43.49" style="fill:#ebebeb"/><rect x="1200" y="724.53" width="43.51" height="43.49" style="fill:#e9e9e9"/><rect x="1200" y="768.02" width="43.51" height="43.49" style="fill:#e1e1e1"/><rect x="1200" y="811.5" width="43.51" height="43.5" style="fill:#dadada"/><rect x="1161.06" y="202.66" width="38.94" height="43.48" style="fill:#fff"/><polygon points="1200 259.6 1200 246.15 1161.06 246.15 1161.06 289.63 1200 289.63 1200 259.6" style="fill:#f6f6f6"/><rect x="1161.06" y="289.63" width="38.94" height="43.49" style="fill:#fff"/><rect x="1161.06" y="333.12" width="38.94" height="43.49" style="fill:#fff"/><rect x="1161.06" y="376.61" width="38.94" height="43.49" style="fill:#fff"/><rect x="1161.06" y="420.1" width="38.94" height="43.49" style="fill:#ececec"/><rect x="1117.55" y="420.1" width="43.51" height="43.49" style="fill:#fff"/><rect x="1117.55" y="376.61" width="43.51" height="43.49" style="fill:#e5e5e5"/><rect x="1117.55" y="333.12" width="43.51" height="43.49" style="fill:#fff"/><rect x="1117.55" y="289.63" width="43.51" height="43.48" style="fill:#f6f6f6"/><rect x="1117.55" y="246.14" width="43.51" height="43.5" style="fill:#fff"/><rect x="1117.55" y="202.66" width="43.51" height="43.48" style="fill:#f6f6f6"/><rect x="1074.04" y="202.66" width="43.51" height="43.48" style="fill:#fff"/><rect x="1074.04" y="246.14" width="43.51" height="43.49" style="fill:#fbfbfb"/><rect x="1074.04" y="289.63" width="43.51" height="43.49" style="fill:#fff"/><rect x="1074.04" y="333.12" width="43.51" height="43.49" style="fill:#fcfcfc"/><rect x="1074.04" y="376.61" width="43.51" height="43.49" style="fill:#fff"/><rect x="1074.04" y="420.1" width="43.51" height="43.49" style="fill:#fbfbfb"/><rect x="1030.53" y="420.1" width="43.51" height="43.49" style="fill:#f2f2f2"/><rect x="1030.53" y="376.61" width="43.51" height="43.49" style="fill:#f5f5f5"/><rect x="1030.53" y="333.12" width="43.51" height="43.49" style="fill:#fff"/><rect x="1030.53" y="289.63" width="43.51" height="43.48" style="fill:#f4f4f4"/><rect x="1030.53" y="246.14" width="43.51" height="43.5" style="fill:#fff"/><rect x="1030.53" y="202.66" width="43.51" height="43.48" style="fill:#fcfcfc"/><rect x="987.02" y="202.66" width="43.51" height="43.48" style="fill:#fff"/><rect x="987.02" y="246.14" width="43.51" height="43.49" style="fill:#eee"/><rect x="987.02" y="289.63" width="43.51" height="43.49" style="fill:#fff"/><rect x="987.02" y="333.12" width="43.51" height="43.49" style="fill:#fbfbfb"/><rect x="987.02" y="376.6" width="43.51" height="43.49" style="fill:#fff"/><rect x="987.02" y="420.1" width="43.51" height="43.49" style="fill:#e4e4e4"/><rect x="943.51" y="420.1" width="43.51" height="43.49" style="fill:#fff"/><rect x="943.51" y="376.6" width="43.51" height="43.49" style="fill:#fff"/><rect x="943.51" y="333.11" width="43.51" height="43.49" style="fill:#fff"/><rect x="943.51" y="289.63" width="43.51" height="43.48" style="fill:#fff"/><rect x="943.51" y="246.14" width="43.51" height="43.5" style="fill:#fff"/><rect x="943.51" y="202.66" width="43.51" height="43.48" style="fill:#fff"/><rect x="900" y="202.66" width="43.51" height="43.48" style="fill:#fff"/><rect x="900" y="246.14" width="43.51" height="43.49" style="fill:#f5f5f5"/><rect x="900" y="289.63" width="43.51" height="43.49" style="fill:#fff"/><rect x="900" y="333.12" width="43.51" height="43.49" style="fill:#fff"/><rect x="900" y="376.6" width="43.51" height="43.49" style="fill:#fff"/><rect x="900" y="420.1" width="43.51" height="43.49" style="fill:#f5f5f5"/><rect x="1161.06" y="463.59" width="38.94" height="43.49" style="fill:#fff"/><rect x="1161.06" y="507.08" width="38.94" height="43.49" style="fill:#e4e4e4"/><rect x="1161.06" y="550.57" width="38.94" height="43.49" style="fill:#eee"/><rect x="1161.06" y="594.06" width="38.94" height="43.49" style="fill:#dfdfdf"/><rect x="1161.06" y="637.55" width="38.94" height="43.49" style="fill:#e4e4e4"/><rect x="1161.06" y="681.04" width="38.94" height="43.49" style="fill:#e0e0e0"/><rect x="1161.06" y="724.53" width="38.94" height="43.49" style="fill:#dfdfdf"/><rect x="1161.06" y="768.02" width="38.94" height="43.49" style="fill:#dfdfdf"/><rect x="1161.06" y="811.5" width="38.94" height="43.5" style="fill:#dadada"/><rect x="1117.55" y="811.5" width="43.51" height="43.49" style="fill:#dadada"/><rect x="1117.55" y="768.01" width="43.51" height="43.49" style="fill:#e1e1e1"/><rect x="1117.55" y="724.53" width="43.51" height="43.49" style="fill:#dfdfdf"/><rect x="1117.55" y="681.04" width="43.51" height="43.49" style="fill:#e8e8e8"/><rect x="1117.55" y="637.55" width="43.51" height="43.49" style="fill:#ededed"/><rect x="1117.55" y="594.05" width="43.51" height="43.5" style="fill:#fff"/><rect x="1117.55" y="550.57" width="43.51" height="43.49" style="fill:#f2f2f2"/><rect x="1117.55" y="507.08" width="43.51" height="43.49" style="fill:#fff"/><rect x="1117.55" y="463.59" width="43.51" height="43.49" style="fill:#f3f3f3"/><rect x="1074.04" y="463.59" width="43.51" height="43.49" style="fill:#fff"/><rect x="1074.04" y="507.08" width="43.51" height="43.49" style="fill:#efefef"/><rect x="1074.04" y="550.57" width="43.51" height="43.49" style="fill:#fefefe"/><rect x="1074.04" y="594.06" width="43.51" height="43.49" style="fill:#f3f3f3"/><rect x="1074.04" y="637.55" width="43.51" height="43.49" style="fill:#e2e2e2"/><rect x="1074.04" y="681.04" width="43.51" height="43.49" style="fill:#e2e2e2"/><rect x="1074.04" y="724.53" width="43.51" height="43.49" style="fill:#e6e6e6"/><rect x="1074.04" y="768.02" width="43.51" height="43.49" style="fill:#dfdfdf"/><rect x="1074.04" y="811.5" width="43.51" height="43.5" style="fill:#dadada"/><rect x="1030.53" y="811.5" width="43.51" height="43.49" style="fill:#dadada"/><rect x="1030.53" y="768.01" width="43.51" height="43.49" style="fill:#e1e1e1"/><rect x="1030.53" y="724.53" width="43.51" height="43.49" style="fill:#e6e6e6"/><rect x="1030.53" y="681.04" width="43.51" height="43.49" style="fill:#e6e6e6"/><rect x="1030.53" y="637.55" width="43.51" height="43.49" style="fill:#e6e6e6"/><rect x="1030.53" y="594.05" width="43.51" height="43.5" style="fill:#fff"/><rect x="1030.53" y="550.57" width="43.51" height="43.49" style="fill:#f1f1f1"/><rect x="1030.53" y="507.08" width="43.51" height="43.49" style="fill:#fff"/><rect x="1030.53" y="463.59" width="43.51" height="43.49" style="fill:#f1f1f1"/><rect x="987.02" y="463.59" width="43.51" height="43.49" style="fill:#f4f4f4"/><rect x="987.02" y="507.08" width="43.51" height="43.49" style="fill:#f4f4f4"/><rect x="987.02" y="550.57" width="43.51" height="43.49" style="fill:#ebebeb"/><rect x="987.02" y="594.06" width="43.51" height="43.49" style="fill:#e8e8e8"/><rect x="987.02" y="637.55" width="43.51" height="43.49" style="fill:#fff"/><rect x="987.02" y="681.04" width="43.51" height="43.49" style="fill:#e5e5e5"/><rect x="987.02" y="724.53" width="43.51" height="43.49" style="fill:#e5e5e5"/><rect x="987.02" y="768.02" width="43.51" height="43.49" style="fill:#dfdfdf"/><rect x="987.02" y="811.5" width="43.51" height="43.5" style="fill:#dadada"/><rect x="943.51" y="811.5" width="43.51" height="43.49" style="fill:#dadada"/><rect x="943.51" y="768.01" width="43.51" height="43.49" style="fill:#dfdfdf"/><rect x="943.51" y="724.53" width="43.51" height="43.49" style="fill:#e9e9e9"/><rect x="943.51" y="681.03" width="43.51" height="43.49" style="fill:#f3f3f3"/><rect x="943.51" y="637.55" width="43.51" height="43.48" style="fill:#eaeaea"/><rect x="943.51" y="594.05" width="43.51" height="43.5" style="fill:#fff"/><rect x="943.51" y="550.57" width="43.51" height="43.49" style="fill:#f4f4f4"/><rect x="943.51" y="507.08" width="43.51" height="43.49" style="fill:#fff"/><rect x="943.51" y="463.59" width="43.51" height="43.48" style="fill:#f5f5f5"/><rect x="900" y="463.59" width="43.51" height="43.49" style="fill:#f7f7f7"/><rect x="900" y="507.08" width="43.51" height="43.49" style="fill:#e9e9e9"/><rect x="900" y="550.57" width="43.51" height="43.49" style="fill:#fff"/><rect x="900" y="594.06" width="43.51" height="43.49" style="fill:#e0e0e0"/><rect x="900" y="637.55" width="43.51" height="43.49" style="fill:#fff"/><rect x="900" y="681.04" width="43.51" height="43.49" style="fill:#ebebeb"/><rect x="900" y="724.53" width="43.51" height="43.49" style="fill:#e9e9e9"/><rect x="900" y="768.02" width="43.51" height="43.49" style="fill:#e1e1e1"/><rect x="900" y="811.5" width="43.51" height="43.5" style="fill:#dadada"/></g></svg>