<svg id="Layer_1" data-name="Layer 1" xmlns="http://www.w3.org/2000/svg" xmlns:xlink="http://www.w3.org/1999/xlink" viewBox="0 0 504 288"><defs><style>.cls-1{fill:none;}.cls-2{fill:#041e27;}.cls-3{clip-path:url(#clip-path);}.cls-4{opacity:0.2;}.cls-5{fill:#fff;}</style><clipPath id="clip-path"><rect class="cls-1" width="504" height="288"/></clipPath></defs><rect id="SVGID-2" class="cls-2" width="504" height="288"/><g class="cls-3"><g class="cls-4"><path class="cls-5" d="M33.19,269.29a62.16,62.16,0,1,1,62.15-62.17v0A62.22,62.22,0,0,1,33.19,269.29Zm0-123.56a61.41,61.41,0,1,0,61.4,61.42h0a61.47,61.47,0,0,0-61.4-61.44Z"/><path class="cls-5" d="M33.19,259A51.86,51.86,0,1,1,85,207.05v.06A51.91,51.91,0,0,1,33.19,259Zm0-103a51.11,51.11,0,1,0,51.1,51.12h0A51.15,51.15,0,0,0,33.19,156Z"/><path class="cls-5" d="M33.19,248.66A41.56,41.56,0,1,1,74.75,207.1h0A41.61,41.61,0,0,1,33.19,248.66Zm0-82.37A40.81,40.81,0,1,0,74,207.11,40.81,40.81,0,0,0,33.19,166.29Z"/><path class="cls-5" d="M33.19,238.37a31.27,31.27,0,1,1,31.26-31.28v0A31.32,31.32,0,0,1,33.19,238.37Zm0-61.78A30.52,30.52,0,1,0,63.7,207.12h0A30.56,30.56,0,0,0,33.19,176.59Z"/><path class="cls-5" d="M33.19,228.07a21,21,0,1,1,21-21h0A21,21,0,0,1,33.19,228.07Zm0-41.18A20.22,20.22,0,1,0,53.4,207.12h0A20.24,20.24,0,0,0,33.19,186.89Z"/><path class="cls-5" d="M33.19,217.78a10.68,10.68,0,1,1,10.67-10.69v0A10.69,10.69,0,0,1,33.19,217.78Zm0-20.6a9.93,9.93,0,1,0,9.92,9.94h0A9.94,9.94,0,0,0,33.19,197.18Z"/></g><g class="cls-4"><path class="cls-5" d="M487.06,252.77A113.41,113.41,0,1,1,600.43,139.32v0A113.54,113.54,0,0,1,487.06,252.77Zm0-226.07A112.66,112.66,0,1,0,599.68,139.4v0A112.79,112.79,0,0,0,487.06,26.7Z"/><path class="cls-5" d="M487.06,233.93a94.57,94.57,0,1,1,94.58-94.57A94.57,94.57,0,0,1,487.06,233.93Zm0-188.39a93.82,93.82,0,1,0,93.83,93.82A93.83,93.83,0,0,0,487.06,45.54Z"/><path class="cls-5" d="M487.06,215.09a75.73,75.73,0,1,1,75.7-75.76v0A75.8,75.8,0,0,1,487.06,215.09Zm0-150.71a75,75,0,1,0,75,75A75,75,0,0,0,487.06,64.38Z"/><path class="cls-5" d="M487.06,196.25A56.89,56.89,0,1,1,544,139.36,56.89,56.89,0,0,1,487.06,196.25Zm0-113a56.14,56.14,0,1,0,56.15,56.14,56.15,56.15,0,0,0-56.15-56.14Z"/><path class="cls-5" d="M487.06,177.42a38.06,38.06,0,1,1,38-38.12v.06A38.09,38.09,0,0,1,487.06,177.42Zm0-75.36a37.31,37.31,0,1,0,37.31,37.31h0A37.34,37.34,0,0,0,487.06,102.06Z"/><path class="cls-5" d="M487.06,158.58a19.22,19.22,0,1,1,19.22-19.22A19.22,19.22,0,0,1,487.06,158.58Zm0-37.7a18.47,18.47,0,1,0,18.47,18.47h0A18.48,18.48,0,0,0,487.06,120.88Z"/></g></g></svg>