<svg id="Layer_1" data-name="Layer 1" xmlns="http://www.w3.org/2000/svg" xmlns:xlink="http://www.w3.org/1999/xlink" viewBox="0 0 504 288"><defs><style>.cls-1{fill:#001315;}.cls-2{clip-path:url(#clip-path);}.cls-3{opacity:0.2;}.cls-4{fill:#fff;}</style><clipPath id="clip-path"><rect id="SVGID" class="cls-1" width="504" height="288"/></clipPath></defs><rect id="SVGID-2" data-name="SVGID" class="cls-1" width="504" height="288"/><g class="cls-2"><g class="cls-3"><path class="cls-4" d="M33.19,259a62.16,62.16,0,1,1,62.15-62.15A62.22,62.22,0,0,1,33.19,259Zm0-123.56a61.41,61.41,0,1,0,61.4,61.41A61.48,61.48,0,0,0,33.19,135.41Z"/><path class="cls-4" d="M33.19,248.67A51.86,51.86,0,1,1,85,196.82,51.91,51.91,0,0,1,33.19,248.67Zm0-103a51.11,51.11,0,1,0,51.1,51.11A51.16,51.16,0,0,0,33.19,145.71Z"/><path class="cls-4" d="M33.19,238.37a41.56,41.56,0,1,1,41.56-41.55A41.61,41.61,0,0,1,33.19,238.37Zm0-82.37A40.81,40.81,0,1,0,74,196.82,40.86,40.86,0,0,0,33.19,156Z"/><path class="cls-4" d="M33.19,228.08a31.27,31.27,0,1,1,31.26-31.26A31.31,31.31,0,0,1,33.19,228.08Zm0-61.78A30.52,30.52,0,1,0,63.7,196.82,30.55,30.55,0,0,0,33.19,166.3Z"/><path class="cls-4" d="M33.19,217.78a21,21,0,1,1,21-21A21,21,0,0,1,33.19,217.78Zm0-41.18A20.22,20.22,0,1,0,53.4,196.82,20.24,20.24,0,0,0,33.19,176.6Z"/><path class="cls-4" d="M33.19,207.49a10.68,10.68,0,1,1,10.67-10.67A10.69,10.69,0,0,1,33.19,207.49Zm0-20.6a9.93,9.93,0,1,0,9.92,9.93A9.94,9.94,0,0,0,33.19,186.89Z"/></g><g class="cls-3"><path class="cls-4" d="M467,160.89A113.41,113.41,0,1,1,580.37,47.48,113.54,113.54,0,0,1,467,160.89Zm0-226.07A112.66,112.66,0,1,0,579.62,47.48,112.79,112.79,0,0,0,467-65.18Z"/><path class="cls-4" d="M467,142.05a94.57,94.57,0,1,1,94.58-94.57A94.68,94.68,0,0,1,467,142.05Zm0-188.39a93.82,93.82,0,1,0,93.83,93.82A93.93,93.93,0,0,0,467-46.34Z"/><path class="cls-4" d="M467,123.21A75.73,75.73,0,1,1,542.7,47.48,75.81,75.81,0,0,1,467,123.21ZM467-27.5a75,75,0,1,0,75,75A75.07,75.07,0,0,0,467-27.5Z"/><path class="cls-4" d="M467,104.37a56.89,56.89,0,1,1,56.9-56.89A57,57,0,0,1,467,104.37Zm0-113a56.14,56.14,0,1,0,56.15,56.14A56.2,56.2,0,0,0,467-8.66Z"/><path class="cls-4" d="M467,85.54A38.06,38.06,0,1,1,505,47.48,38.1,38.1,0,0,1,467,85.54Zm0-75.36a37.31,37.31,0,1,0,37.31,37.3A37.34,37.34,0,0,0,467,10.18Z"/><path class="cls-4" d="M467,66.7a19.22,19.22,0,1,1,19.22-19.22A19.24,19.24,0,0,1,467,66.7ZM467,29a18.47,18.47,0,1,0,18.47,18.46A18.48,18.48,0,0,0,467,29Z"/></g><path class="cls-4" d="M329.33,25.61a.49.49,0,0,1-.35-.15.46.46,0,0,1-.11-.16.58.58,0,0,1,0-.19.65.65,0,0,1,0-.19.46.46,0,0,1,.11-.16.51.51,0,0,1,.71,0,.64.64,0,0,1,.11.16.63.63,0,0,1,0,.19.58.58,0,0,1,0,.19.64.64,0,0,1-.11.16.39.39,0,0,1-.17.11A.41.41,0,0,1,329.33,25.61Z"/><path class="cls-4" d="M479.23,25.11a.5.5,0,0,1,.5-.5h0a.5.5,0,0,1,.5.5h0a.5.5,0,0,1-.5.5h0A.5.5,0,0,1,479.23,25.11Zm-7.91,0a.49.49,0,0,1,.49-.5h0a.5.5,0,0,1,.5.5h0a.5.5,0,0,1-.5.5h0A.49.49,0,0,1,471.32,25.11Zm-7.92,0a.5.5,0,0,1,.5-.5h0a.5.5,0,0,1,.5.5h0a.5.5,0,0,1-.5.5h0A.5.5,0,0,1,463.4,25.11Zm-7.92,0a.5.5,0,0,1,.5-.5h0a.5.5,0,0,1,.5.5h0a.5.5,0,0,1-.5.5h0A.5.5,0,0,1,455.48,25.11Zm-7.91,0a.5.5,0,0,1,.5-.5h0a.5.5,0,0,1,.5.5h0a.5.5,0,0,1-.5.5h0A.5.5,0,0,1,447.57,25.11Zm-7.92,0a.5.5,0,0,1,.5-.5h0a.5.5,0,0,1,.5.5h0a.5.5,0,0,1-.5.5h0A.5.5,0,0,1,439.65,25.11Zm-7.91,0a.5.5,0,0,1,.5-.5h0a.5.5,0,0,1,.5.5h0a.5.5,0,0,1-.5.5h0A.5.5,0,0,1,431.74,25.11Zm-7.92,0a.5.5,0,0,1,.5-.5h0a.5.5,0,0,1,.5.5h0a.5.5,0,0,1-.5.5h0A.5.5,0,0,1,423.82,25.11Zm-7.92,0a.5.5,0,0,1,.5-.5h0a.5.5,0,0,1,.5.5h0a.5.5,0,0,1-.5.5h0A.5.5,0,0,1,415.9,25.11Zm-7.91,0a.5.5,0,0,1,.5-.5h0a.5.5,0,0,1,.5.5h0a.5.5,0,0,1-.5.5h0A.5.5,0,0,1,408,25.11Zm-7.92,0a.5.5,0,0,1,.5-.5h0a.5.5,0,0,1,.5.5h0a.5.5,0,0,1-.5.5h0A.5.5,0,0,1,400.07,25.11Zm-7.91,0a.5.5,0,0,1,.5-.5h0a.5.5,0,0,1,.5.5h0a.5.5,0,0,1-.5.5h0A.5.5,0,0,1,392.16,25.11Zm-7.92,0a.5.5,0,0,1,.5-.5h0a.5.5,0,0,1,.5.5h0a.5.5,0,0,1-.5.5h0A.5.5,0,0,1,384.24,25.11Zm-7.91,0a.5.5,0,0,1,.5-.5h0a.5.5,0,0,1,.5.5h0a.5.5,0,0,1-.5.5h0A.5.5,0,0,1,376.33,25.11Zm-7.92,0a.5.5,0,0,1,.5-.5h0a.5.5,0,0,1,.5.5h0a.5.5,0,0,1-.5.5h0A.5.5,0,0,1,368.41,25.11Zm-7.91,0a.5.5,0,0,1,.5-.5h0a.5.5,0,0,1,.5.5h0a.5.5,0,0,1-.5.5h0A.5.5,0,0,1,360.5,25.11Zm-7.92,0a.5.5,0,0,1,.5-.5h0a.5.5,0,0,1,.5.5h0a.5.5,0,0,1-.5.5h0A.5.5,0,0,1,352.58,25.11Zm-7.92,0a.5.5,0,0,1,.5-.5h0a.5.5,0,0,1,.5.5h0a.5.5,0,0,1-.5.5h0A.5.5,0,0,1,344.66,25.11Zm-7.91,0a.5.5,0,0,1,.5-.5h0a.5.5,0,0,1,.5.5h0a.5.5,0,0,1-.5.5h0A.5.5,0,0,1,336.75,25.11Z"/><path class="cls-4" d="M487.65,25.61a.45.45,0,0,1-.2,0,.42.42,0,0,1-.16-.11.5.5,0,0,1-.14-.35.58.58,0,0,1,0-.19.64.64,0,0,1,.11-.16.42.42,0,0,1,.16-.11.51.51,0,0,1,.55.11.64.64,0,0,1,.11.16.63.63,0,0,1,0,.19.5.5,0,0,1-.14.35A.49.49,0,0,1,487.65,25.61Z"/><path class="cls-4" d="M7.4,238.24a.46.46,0,0,1-.35-.16.43.43,0,0,1-.15-.34.6.6,0,0,1,.15-.37.37.37,0,0,1,.16-.09.54.54,0,0,1,.55.09l.11.17a.64.64,0,0,1,0,.2.46.46,0,0,1-.14.34A.46.46,0,0,1,7.4,238.24Z"/><path class="cls-4" d="M157.3,237.74a.49.49,0,0,1,.5-.5h0a.49.49,0,0,1,.5.5h0a.51.51,0,0,1-.5.5h0A.51.51,0,0,1,157.3,237.74Zm-7.92,0a.5.5,0,0,1,.5-.5h0a.49.49,0,0,1,.5.5h0a.51.51,0,0,1-.5.5h0A.51.51,0,0,1,149.38,237.74Zm-7.91,0a.49.49,0,0,1,.5-.5h0a.5.5,0,0,1,.5.5h0a.51.51,0,0,1-.5.5h0A.51.51,0,0,1,141.47,237.74Zm-7.92,0a.5.5,0,0,1,.5-.5h0a.49.49,0,0,1,.5.5h0a.51.51,0,0,1-.5.5h0A.51.51,0,0,1,133.55,237.74Zm-7.91,0a.49.49,0,0,1,.5-.5h0a.5.5,0,0,1,.5.5h0a.51.51,0,0,1-.5.5h0A.51.51,0,0,1,125.64,237.74Zm-7.92,0a.49.49,0,0,1,.5-.5h0a.49.49,0,0,1,.5.5h0a.51.51,0,0,1-.5.5h0A.51.51,0,0,1,117.72,237.74Zm-7.91,0a.49.49,0,0,1,.5-.5h0a.5.5,0,0,1,.5.5h0a.51.51,0,0,1-.5.5h0A.51.51,0,0,1,109.81,237.74Zm-7.92,0a.49.49,0,0,1,.5-.5h0a.49.49,0,0,1,.5.5h0a.51.51,0,0,1-.5.5h0A.51.51,0,0,1,101.89,237.74Zm-7.92,0a.5.5,0,0,1,.5-.5h0a.49.49,0,0,1,.5.5h0a.51.51,0,0,1-.5.5h0A.51.51,0,0,1,94,237.74Zm-7.91,0a.49.49,0,0,1,.5-.5h0a.5.5,0,0,1,.5.5h0a.51.51,0,0,1-.5.5h0A.51.51,0,0,1,86.06,237.74Zm-7.92,0a.5.5,0,0,1,.5-.5h0a.49.49,0,0,1,.5.5h0a.51.51,0,0,1-.5.5h0A.51.51,0,0,1,78.14,237.74Zm-7.91,0a.49.49,0,0,1,.5-.5h0a.5.5,0,0,1,.5.5h0a.51.51,0,0,1-.5.5h0A.51.51,0,0,1,70.23,237.74Zm-7.92,0a.49.49,0,0,1,.5-.5h0a.49.49,0,0,1,.5.5h0a.51.51,0,0,1-.5.5h0A.51.51,0,0,1,62.31,237.74Zm-7.91,0a.49.49,0,0,1,.5-.5h0a.5.5,0,0,1,.5.5h0a.51.51,0,0,1-.5.5h0A.51.51,0,0,1,54.4,237.74Zm-7.92,0a.49.49,0,0,1,.5-.5h0a.49.49,0,0,1,.5.5h0a.51.51,0,0,1-.5.5h0A.51.51,0,0,1,46.48,237.74Zm-7.91,0a.49.49,0,0,1,.49-.5h0a.5.5,0,0,1,.51.5h0a.52.52,0,0,1-.51.5h0A.51.51,0,0,1,38.57,237.74Zm-7.92,0a.49.49,0,0,1,.5-.5h0a.49.49,0,0,1,.5.5h0a.51.51,0,0,1-.5.5h0A.51.51,0,0,1,30.65,237.74Zm-7.92,0a.5.5,0,0,1,.51-.5h0a.49.49,0,0,1,.49.5h0a.51.51,0,0,1-.49.5h0A.52.52,0,0,1,22.73,237.74Zm-7.91,0a.49.49,0,0,1,.5-.5h0a.5.5,0,0,1,.5.5h0a.51.51,0,0,1-.5.5h0A.51.51,0,0,1,14.82,237.74Z"/><path class="cls-4" d="M165.72,238.24a.45.45,0,0,1-.2,0,.36.36,0,0,1-.16-.12.47.47,0,0,1-.15-.34.6.6,0,0,1,.15-.37.56.56,0,0,1,.71,0,.6.6,0,0,1,.15.37.47.47,0,0,1-.15.34A.46.46,0,0,1,165.72,238.24Z"/><path class="cls-4" d="M84.28,37a.49.49,0,0,1-.15.35.47.47,0,0,1-.35.15.55.55,0,0,1-.36-.15.54.54,0,0,1-.1-.16.52.52,0,0,1,.1-.55l.17-.11a.58.58,0,0,1,.19,0,.5.5,0,0,1,.35.14A.49.49,0,0,1,84.28,37Z"/><path class="cls-4" d="M83.78-112.9a.5.5,0,0,1-.5-.5h0a.5.5,0,0,1,.5-.5h0a.5.5,0,0,1,.5.5h0A.5.5,0,0,1,83.78-112.9Zm0,7.92a.5.5,0,0,1-.5-.5h0a.5.5,0,0,1,.5-.5h0a.5.5,0,0,1,.5.5h0A.51.51,0,0,1,83.78-105Zm0,7.91a.5.5,0,0,1-.5-.5h0a.5.5,0,0,1,.5-.5h0a.51.51,0,0,1,.5.5h0A.5.5,0,0,1,83.78-97.07Zm0,7.92a.5.5,0,0,1-.5-.5h0a.5.5,0,0,1,.5-.5h0a.5.5,0,0,1,.5.5h0A.51.51,0,0,1,83.78-89.15Zm0,7.91a.5.5,0,0,1-.5-.5h0a.5.5,0,0,1,.5-.5h0a.51.51,0,0,1,.5.5h0A.5.5,0,0,1,83.78-81.24Zm0,7.92a.5.5,0,0,1-.5-.5h0a.5.5,0,0,1,.5-.5h0a.5.5,0,0,1,.5.5h0A.5.5,0,0,1,83.78-73.32Zm0,7.91a.5.5,0,0,1-.5-.5h0a.5.5,0,0,1,.5-.5h0a.51.51,0,0,1,.5.5h0A.5.5,0,0,1,83.78-65.41Zm0,7.92a.5.5,0,0,1-.5-.5h0a.5.5,0,0,1,.5-.5h0a.5.5,0,0,1,.5.5h0A.5.5,0,0,1,83.78-57.49Zm0,7.92a.5.5,0,0,1-.5-.5h0a.5.5,0,0,1,.5-.5h0a.5.5,0,0,1,.5.5h0A.51.51,0,0,1,83.78-49.57Zm0,7.91a.5.5,0,0,1-.5-.5h0a.5.5,0,0,1,.5-.5h0a.51.51,0,0,1,.5.5h0A.5.5,0,0,1,83.78-41.66Zm0,7.92a.5.5,0,0,1-.5-.5h0a.5.5,0,0,1,.5-.5h0a.5.5,0,0,1,.5.5h0A.51.51,0,0,1,83.78-33.74Zm0,7.91a.5.5,0,0,1-.5-.5h0a.5.5,0,0,1,.5-.5h0a.51.51,0,0,1,.5.5h0A.5.5,0,0,1,83.78-25.83Zm0,7.92a.5.5,0,0,1-.5-.5h0a.5.5,0,0,1,.5-.5h0a.5.5,0,0,1,.5.5h0A.5.5,0,0,1,83.78-17.91Zm0,7.91a.5.5,0,0,1-.5-.5h0a.5.5,0,0,1,.5-.5h0a.51.51,0,0,1,.5.5h0A.5.5,0,0,1,83.78-10Zm0,7.92a.5.5,0,0,1-.5-.5h0a.5.5,0,0,1,.5-.5h0a.5.5,0,0,1,.5.5h0A.5.5,0,0,1,83.78-2.08Zm0,7.91a.49.49,0,0,1-.5-.49h0a.5.5,0,0,1,.5-.51h0a.51.51,0,0,1,.5.51h0A.5.5,0,0,1,83.78,5.83Zm0,7.92a.5.5,0,0,1-.5-.5h0a.5.5,0,0,1,.5-.5h0a.5.5,0,0,1,.5.5h0A.5.5,0,0,1,83.78,13.75Zm0,7.92a.5.5,0,0,1-.5-.51h0a.49.49,0,0,1,.5-.49h0a.5.5,0,0,1,.5.49h0A.51.51,0,0,1,83.78,21.67Zm0,7.91a.5.5,0,0,1-.5-.5h0a.5.5,0,0,1,.5-.5h0a.51.51,0,0,1,.5.5h0A.5.5,0,0,1,83.78,29.58Z"/><path class="cls-4" d="M378,212.24a.5.5,0,0,1-.5-.5h0a.5.5,0,0,1,.5-.5h0a.5.5,0,0,1,.5.5h0A.5.5,0,0,1,378,212.24Zm0,7.92a.5.5,0,0,1-.5-.5h0a.5.5,0,0,1,.5-.5h0a.5.5,0,0,1,.5.5h0A.51.51,0,0,1,378,220.16Zm0,7.91a.5.5,0,0,1-.5-.5h0a.5.5,0,0,1,.5-.5h0a.51.51,0,0,1,.5.5h0A.5.5,0,0,1,378,228.07Zm0,7.92a.5.5,0,0,1-.5-.5h0a.5.5,0,0,1,.5-.5h0a.5.5,0,0,1,.5.5h0A.51.51,0,0,1,378,236Zm0,7.91a.5.5,0,0,1-.5-.5h0a.5.5,0,0,1,.5-.5h0a.51.51,0,0,1,.5.5h0A.5.5,0,0,1,378,243.9Zm0,7.92a.5.5,0,0,1-.5-.5h0a.5.5,0,0,1,.5-.5h0a.5.5,0,0,1,.5.5h0A.5.5,0,0,1,378,251.82Zm0,7.91a.5.5,0,0,1-.5-.5h0a.5.5,0,0,1,.5-.5h0a.51.51,0,0,1,.5.5h0A.5.5,0,0,1,378,259.73Zm0,7.92a.5.5,0,0,1-.5-.5h0a.5.5,0,0,1,.5-.5h0a.5.5,0,0,1,.5.5h0A.5.5,0,0,1,378,267.65Zm0,7.92a.5.5,0,0,1-.5-.5h0a.5.5,0,0,1,.5-.5h0a.5.5,0,0,1,.5.5h0A.51.51,0,0,1,378,275.57Zm0,7.91a.5.5,0,0,1-.5-.5h0a.5.5,0,0,1,.5-.5h0a.51.51,0,0,1,.5.5h0A.5.5,0,0,1,378,283.48Zm0,7.92a.5.5,0,0,1-.5-.5h0a.5.5,0,0,1,.5-.5h0a.5.5,0,0,1,.5.5h0A.51.51,0,0,1,378,291.4Zm0,7.91a.5.5,0,0,1-.5-.5h0a.5.5,0,0,1,.5-.5h0a.51.51,0,0,1,.5.5h0A.5.5,0,0,1,378,299.31Zm0,7.92a.5.5,0,0,1-.5-.5h0a.5.5,0,0,1,.5-.5h0a.5.5,0,0,1,.5.5h0A.5.5,0,0,1,378,307.23Zm0,7.91a.5.5,0,0,1-.5-.5h0a.5.5,0,0,1,.5-.5h0a.51.51,0,0,1,.5.5h0A.5.5,0,0,1,378,315.14Zm0,7.92a.5.5,0,0,1-.5-.5h0a.5.5,0,0,1,.5-.5h0a.5.5,0,0,1,.5.5h0A.5.5,0,0,1,378,323.06Zm0,7.91a.49.49,0,0,1-.5-.49h0a.5.5,0,0,1,.5-.51h0a.51.51,0,0,1,.5.51h0A.5.5,0,0,1,378,331Zm0,7.92a.5.5,0,0,1-.5-.5h0a.5.5,0,0,1,.5-.5h0a.5.5,0,0,1,.5.5h0A.5.5,0,0,1,378,338.89Zm0,7.92a.5.5,0,0,1-.5-.51h0a.49.49,0,0,1,.5-.49h0a.5.5,0,0,1,.5.49h0A.51.51,0,0,1,378,346.81Zm0,7.91a.5.5,0,0,1-.5-.5h0a.5.5,0,0,1,.5-.5h0a.51.51,0,0,1,.5.5h0A.5.5,0,0,1,378,354.72Z"/><path class="cls-4" d="M378.49,203.82a.45.45,0,0,1,0,.2.42.42,0,0,1-.11.16.51.51,0,0,1-.35.15.55.55,0,0,1-.36-.15.53.53,0,0,1,0-.71.55.55,0,0,1,.36-.15.51.51,0,0,1,.35.15A.49.49,0,0,1,378.49,203.82Z"/></g></svg>