<?xml version="1.0" standalone="no"?>
<!DOCTYPE svg PUBLIC "-//W3C//DTD SVG 20010904//EN"
 "http://www.w3.org/TR/2001/REC-SVG-20010904/DTD/svg10.dtd">
<svg version="1.0" xmlns="http://www.w3.org/2000/svg"
 width="4096.000000pt" height="3296.000000pt" viewBox="0 0 4096.000000 3296.000000"
 preserveAspectRatio="xMidYMid meet">

<g transform="translate(0.000000,3296.000000) scale(0.100000,-0.100000)"
fill="#000000" stroke="none">
<path d="M20040 32953 c-352 -7 -847 -37 -1220 -74 -3330 -329 -6452 -1681
-8975 -3884 -370 -323 -962 -904 -1289 -1264 -1493 -1646 -2612 -3543 -3320
-5631 -123 -361 -293 -926 -283 -936 2 -3 60 14 128 37 101 33 146 55 244 119
1535 992 3387 1624 5230 1784 476 42 1230 55 1630 28 496 -33 861 -75 1265
-144 393 -67 352 -79 602 177 334 343 660 631 1022 904 1244 938 2692 1527
4246 1725 410 52 559 61 1100 61 603 0 877 -19 1370 -96 1254 -196 2443 -653
3505 -1347 195 -128 418 -287 590 -421 126 -99 130 -101 182 -101 50 0 56 -3
125 -62 274 -233 690 -644 920 -909 1238 -1425 1986 -3171 2157 -5034 32 -343
41 -622 41 -1266 l0 -596 158 -7 c898 -40 1721 -322 2437 -835 342 -245 684
-579 944 -920 368 -484 630 -1035 776 -1626 234 -951 153 -1928 -236 -2838
-356 -831 -991 -1562 -1766 -2030 -548 -332 -1108 -527 -1775 -619 l-163 -23
-4640 -5 -4640 -5 -3 -3533 c-2 -3333 -3 -3532 -19 -3532 -16 0 -15 -2 2 -20
20 -20 44 -20 4715 -20 4724 0 4825 0 5250 36 2025 167 3987 875 5655 2039
2293 1600 3926 3970 4604 6681 181 726 289 1443 331 2214 13 239 13 931 0
1175 -128 2384 -961 4624 -2419 6505 -298 385 -562 682 -955 1076 -534 533
-982 910 -1569 1319 l-127 89 -20 66 c-10 36 -33 115 -50 175 -639 2235 -1808
4373 -3351 6130 -402 457 -907 969 -1333 1349 l-77 69 -39 -38 -39 -39 5 50 6
49 -128 111 c-1930 1657 -4154 2809 -6588 3415 -1139 283 -2231 432 -3436 469
-300 9 -450 10 -780 3z"/>
</g>
</svg>
